%TF.GenerationSoftware,KiCad,Pcbnew,(6.0.8)*%
%TF.CreationDate,2024-09-05T02:31:09-03:00*%
%TF.ProjectId,Projeto_01,50726f6a-6574-46f5-9f30-312e6b696361,rev?*%
%TF.SameCoordinates,Original*%
%TF.FileFunction,Drillmap*%
%TF.FilePolarity,Positive*%
%FSLAX45Y45*%
G04 Gerber Fmt 4.5, Leading zero omitted, Abs format (unit mm)*
G04 Created by KiCad (PCBNEW (6.0.8)) date 2024-09-05 02:31:09*
%MOMM*%
%LPD*%
G01*
G04 APERTURE LIST*
%ADD10C,0.100000*%
%ADD11C,0.200000*%
%ADD12C,0.250000*%
G04 APERTURE END LIST*
D10*
X16764000Y-3429000D02*
X26670000Y-3429000D01*
X26670000Y-3429000D02*
X26670000Y-13335000D01*
X26670000Y-13335000D02*
X16764000Y-13335000D01*
X16764000Y-13335000D02*
X16764000Y-3429000D01*
D11*
D12*
X17515000Y-3949000D02*
X17765000Y-4199000D01*
X17765000Y-3949000D02*
X17515000Y-4199000D01*
X17665000Y-7549000D02*
X17915000Y-7799000D01*
X17915000Y-7549000D02*
X17665000Y-7799000D01*
X25265000Y-7549000D02*
X25515000Y-7799000D01*
X25515000Y-7549000D02*
X25265000Y-7799000D01*
X25415000Y-3949000D02*
X25665000Y-4199000D01*
X25665000Y-3949000D02*
X25415000Y-4199000D01*
D11*
X17016619Y-13650476D02*
X17016619Y-13450476D01*
X17064238Y-13450476D01*
X17092810Y-13460000D01*
X17111857Y-13479048D01*
X17121381Y-13498095D01*
X17130905Y-13536190D01*
X17130905Y-13564762D01*
X17121381Y-13602857D01*
X17111857Y-13621905D01*
X17092810Y-13640952D01*
X17064238Y-13650476D01*
X17016619Y-13650476D01*
X17216619Y-13650476D02*
X17216619Y-13517143D01*
X17216619Y-13555238D02*
X17226143Y-13536190D01*
X17235667Y-13526667D01*
X17254714Y-13517143D01*
X17273762Y-13517143D01*
X17340429Y-13650476D02*
X17340429Y-13517143D01*
X17340429Y-13450476D02*
X17330905Y-13460000D01*
X17340429Y-13469524D01*
X17349952Y-13460000D01*
X17340429Y-13450476D01*
X17340429Y-13469524D01*
X17464238Y-13650476D02*
X17445190Y-13640952D01*
X17435667Y-13621905D01*
X17435667Y-13450476D01*
X17569000Y-13650476D02*
X17549952Y-13640952D01*
X17540429Y-13621905D01*
X17540429Y-13450476D01*
X17797571Y-13650476D02*
X17797571Y-13450476D01*
X17864238Y-13593333D01*
X17930905Y-13450476D01*
X17930905Y-13650476D01*
X18111857Y-13650476D02*
X18111857Y-13545714D01*
X18102333Y-13526667D01*
X18083286Y-13517143D01*
X18045190Y-13517143D01*
X18026143Y-13526667D01*
X18111857Y-13640952D02*
X18092810Y-13650476D01*
X18045190Y-13650476D01*
X18026143Y-13640952D01*
X18016619Y-13621905D01*
X18016619Y-13602857D01*
X18026143Y-13583809D01*
X18045190Y-13574286D01*
X18092810Y-13574286D01*
X18111857Y-13564762D01*
X18207095Y-13517143D02*
X18207095Y-13717143D01*
X18207095Y-13526667D02*
X18226143Y-13517143D01*
X18264238Y-13517143D01*
X18283286Y-13526667D01*
X18292810Y-13536190D01*
X18302333Y-13555238D01*
X18302333Y-13612381D01*
X18292810Y-13631428D01*
X18283286Y-13640952D01*
X18264238Y-13650476D01*
X18226143Y-13650476D01*
X18207095Y-13640952D01*
X18388048Y-13631428D02*
X18397571Y-13640952D01*
X18388048Y-13650476D01*
X18378524Y-13640952D01*
X18388048Y-13631428D01*
X18388048Y-13650476D01*
X18388048Y-13526667D02*
X18397571Y-13536190D01*
X18388048Y-13545714D01*
X18378524Y-13536190D01*
X18388048Y-13526667D01*
X18388048Y-13545714D01*
X16559000Y-13880000D02*
X16759000Y-14080000D01*
X16759000Y-13880000D02*
X16559000Y-14080000D01*
X17007095Y-13889524D02*
X17016619Y-13880000D01*
X17035667Y-13870476D01*
X17083286Y-13870476D01*
X17102333Y-13880000D01*
X17111857Y-13889524D01*
X17121381Y-13908571D01*
X17121381Y-13927619D01*
X17111857Y-13956190D01*
X16997571Y-14070476D01*
X17121381Y-14070476D01*
X17207095Y-14051428D02*
X17216619Y-14060952D01*
X17207095Y-14070476D01*
X17197571Y-14060952D01*
X17207095Y-14051428D01*
X17207095Y-14070476D01*
X17397571Y-13870476D02*
X17302333Y-13870476D01*
X17292810Y-13965714D01*
X17302333Y-13956190D01*
X17321381Y-13946667D01*
X17369000Y-13946667D01*
X17388048Y-13956190D01*
X17397571Y-13965714D01*
X17407095Y-13984762D01*
X17407095Y-14032381D01*
X17397571Y-14051428D01*
X17388048Y-14060952D01*
X17369000Y-14070476D01*
X17321381Y-14070476D01*
X17302333Y-14060952D01*
X17292810Y-14051428D01*
X17530905Y-13870476D02*
X17549952Y-13870476D01*
X17569000Y-13880000D01*
X17578524Y-13889524D01*
X17588048Y-13908571D01*
X17597571Y-13946667D01*
X17597571Y-13994286D01*
X17588048Y-14032381D01*
X17578524Y-14051428D01*
X17569000Y-14060952D01*
X17549952Y-14070476D01*
X17530905Y-14070476D01*
X17511857Y-14060952D01*
X17502333Y-14051428D01*
X17492810Y-14032381D01*
X17483286Y-13994286D01*
X17483286Y-13946667D01*
X17492810Y-13908571D01*
X17502333Y-13889524D01*
X17511857Y-13880000D01*
X17530905Y-13870476D01*
X17721381Y-13870476D02*
X17740429Y-13870476D01*
X17759476Y-13880000D01*
X17769000Y-13889524D01*
X17778524Y-13908571D01*
X17788048Y-13946667D01*
X17788048Y-13994286D01*
X17778524Y-14032381D01*
X17769000Y-14051428D01*
X17759476Y-14060952D01*
X17740429Y-14070476D01*
X17721381Y-14070476D01*
X17702333Y-14060952D01*
X17692810Y-14051428D01*
X17683286Y-14032381D01*
X17673762Y-13994286D01*
X17673762Y-13946667D01*
X17683286Y-13908571D01*
X17692810Y-13889524D01*
X17702333Y-13880000D01*
X17721381Y-13870476D01*
X17873762Y-14070476D02*
X17873762Y-13937143D01*
X17873762Y-13956190D02*
X17883286Y-13946667D01*
X17902333Y-13937143D01*
X17930905Y-13937143D01*
X17949952Y-13946667D01*
X17959476Y-13965714D01*
X17959476Y-14070476D01*
X17959476Y-13965714D02*
X17969000Y-13946667D01*
X17988048Y-13937143D01*
X18016619Y-13937143D01*
X18035667Y-13946667D01*
X18045190Y-13965714D01*
X18045190Y-14070476D01*
X18140429Y-14070476D02*
X18140429Y-13937143D01*
X18140429Y-13956190D02*
X18149952Y-13946667D01*
X18169000Y-13937143D01*
X18197571Y-13937143D01*
X18216619Y-13946667D01*
X18226143Y-13965714D01*
X18226143Y-14070476D01*
X18226143Y-13965714D02*
X18235667Y-13946667D01*
X18254714Y-13937143D01*
X18283286Y-13937143D01*
X18302333Y-13946667D01*
X18311857Y-13965714D01*
X18311857Y-14070476D01*
X18702333Y-13860952D02*
X18530905Y-14118095D01*
X18959476Y-13870476D02*
X18978524Y-13870476D01*
X18997571Y-13880000D01*
X19007095Y-13889524D01*
X19016619Y-13908571D01*
X19026143Y-13946667D01*
X19026143Y-13994286D01*
X19016619Y-14032381D01*
X19007095Y-14051428D01*
X18997571Y-14060952D01*
X18978524Y-14070476D01*
X18959476Y-14070476D01*
X18940429Y-14060952D01*
X18930905Y-14051428D01*
X18921381Y-14032381D01*
X18911857Y-13994286D01*
X18911857Y-13946667D01*
X18921381Y-13908571D01*
X18930905Y-13889524D01*
X18940429Y-13880000D01*
X18959476Y-13870476D01*
X19111857Y-14051428D02*
X19121381Y-14060952D01*
X19111857Y-14070476D01*
X19102333Y-14060952D01*
X19111857Y-14051428D01*
X19111857Y-14070476D01*
X19245190Y-13870476D02*
X19264238Y-13870476D01*
X19283286Y-13880000D01*
X19292810Y-13889524D01*
X19302333Y-13908571D01*
X19311857Y-13946667D01*
X19311857Y-13994286D01*
X19302333Y-14032381D01*
X19292810Y-14051428D01*
X19283286Y-14060952D01*
X19264238Y-14070476D01*
X19245190Y-14070476D01*
X19226143Y-14060952D01*
X19216619Y-14051428D01*
X19207095Y-14032381D01*
X19197571Y-13994286D01*
X19197571Y-13946667D01*
X19207095Y-13908571D01*
X19216619Y-13889524D01*
X19226143Y-13880000D01*
X19245190Y-13870476D01*
X19407095Y-14070476D02*
X19445190Y-14070476D01*
X19464238Y-14060952D01*
X19473762Y-14051428D01*
X19492810Y-14022857D01*
X19502333Y-13984762D01*
X19502333Y-13908571D01*
X19492810Y-13889524D01*
X19483286Y-13880000D01*
X19464238Y-13870476D01*
X19426143Y-13870476D01*
X19407095Y-13880000D01*
X19397571Y-13889524D01*
X19388048Y-13908571D01*
X19388048Y-13956190D01*
X19397571Y-13975238D01*
X19407095Y-13984762D01*
X19426143Y-13994286D01*
X19464238Y-13994286D01*
X19483286Y-13984762D01*
X19492810Y-13975238D01*
X19502333Y-13956190D01*
X19616619Y-13956190D02*
X19597571Y-13946667D01*
X19588048Y-13937143D01*
X19578524Y-13918095D01*
X19578524Y-13908571D01*
X19588048Y-13889524D01*
X19597571Y-13880000D01*
X19616619Y-13870476D01*
X19654714Y-13870476D01*
X19673762Y-13880000D01*
X19683286Y-13889524D01*
X19692810Y-13908571D01*
X19692810Y-13918095D01*
X19683286Y-13937143D01*
X19673762Y-13946667D01*
X19654714Y-13956190D01*
X19616619Y-13956190D01*
X19597571Y-13965714D01*
X19588048Y-13975238D01*
X19578524Y-13994286D01*
X19578524Y-14032381D01*
X19588048Y-14051428D01*
X19597571Y-14060952D01*
X19616619Y-14070476D01*
X19654714Y-14070476D01*
X19673762Y-14060952D01*
X19683286Y-14051428D01*
X19692810Y-14032381D01*
X19692810Y-13994286D01*
X19683286Y-13975238D01*
X19673762Y-13965714D01*
X19654714Y-13956190D01*
X19864238Y-13937143D02*
X19864238Y-14070476D01*
X19816619Y-13860952D02*
X19769000Y-14003809D01*
X19892810Y-14003809D01*
X19959476Y-13870476D02*
X19959476Y-13908571D01*
X20035667Y-13870476D02*
X20035667Y-13908571D01*
X20330905Y-14146667D02*
X20321381Y-14137143D01*
X20302333Y-14108571D01*
X20292810Y-14089524D01*
X20283286Y-14060952D01*
X20273762Y-14013333D01*
X20273762Y-13975238D01*
X20283286Y-13927619D01*
X20292810Y-13899048D01*
X20302333Y-13880000D01*
X20321381Y-13851428D01*
X20330905Y-13841905D01*
X20492810Y-13937143D02*
X20492810Y-14070476D01*
X20445190Y-13860952D02*
X20397571Y-14003809D01*
X20521381Y-14003809D01*
X20749952Y-14070476D02*
X20749952Y-13870476D01*
X20835667Y-14070476D02*
X20835667Y-13965714D01*
X20826143Y-13946667D01*
X20807095Y-13937143D01*
X20778524Y-13937143D01*
X20759476Y-13946667D01*
X20749952Y-13956190D01*
X20959476Y-14070476D02*
X20940429Y-14060952D01*
X20930905Y-14051428D01*
X20921381Y-14032381D01*
X20921381Y-13975238D01*
X20930905Y-13956190D01*
X20940429Y-13946667D01*
X20959476Y-13937143D01*
X20988048Y-13937143D01*
X21007095Y-13946667D01*
X21016619Y-13956190D01*
X21026143Y-13975238D01*
X21026143Y-14032381D01*
X21016619Y-14051428D01*
X21007095Y-14060952D01*
X20988048Y-14070476D01*
X20959476Y-14070476D01*
X21140429Y-14070476D02*
X21121381Y-14060952D01*
X21111857Y-14041905D01*
X21111857Y-13870476D01*
X21292810Y-14060952D02*
X21273762Y-14070476D01*
X21235667Y-14070476D01*
X21216619Y-14060952D01*
X21207095Y-14041905D01*
X21207095Y-13965714D01*
X21216619Y-13946667D01*
X21235667Y-13937143D01*
X21273762Y-13937143D01*
X21292810Y-13946667D01*
X21302333Y-13965714D01*
X21302333Y-13984762D01*
X21207095Y-14003809D01*
X21378524Y-14060952D02*
X21397571Y-14070476D01*
X21435667Y-14070476D01*
X21454714Y-14060952D01*
X21464238Y-14041905D01*
X21464238Y-14032381D01*
X21454714Y-14013333D01*
X21435667Y-14003809D01*
X21407095Y-14003809D01*
X21388048Y-13994286D01*
X21378524Y-13975238D01*
X21378524Y-13965714D01*
X21388048Y-13946667D01*
X21407095Y-13937143D01*
X21435667Y-13937143D01*
X21454714Y-13946667D01*
X21530905Y-14146667D02*
X21540429Y-14137143D01*
X21559476Y-14108571D01*
X21569000Y-14089524D01*
X21578524Y-14060952D01*
X21588048Y-14013333D01*
X21588048Y-13975238D01*
X21578524Y-13927619D01*
X21569000Y-13899048D01*
X21559476Y-13880000D01*
X21540429Y-13851428D01*
X21530905Y-13841905D01*
X21892810Y-14146667D02*
X21883286Y-14137143D01*
X21864238Y-14108571D01*
X21854714Y-14089524D01*
X21845190Y-14060952D01*
X21835667Y-14013333D01*
X21835667Y-13975238D01*
X21845190Y-13927619D01*
X21854714Y-13899048D01*
X21864238Y-13880000D01*
X21883286Y-13851428D01*
X21892810Y-13841905D01*
X21969000Y-13937143D02*
X21969000Y-14070476D01*
X21969000Y-13956190D02*
X21978524Y-13946667D01*
X21997571Y-13937143D01*
X22026143Y-13937143D01*
X22045190Y-13946667D01*
X22054714Y-13965714D01*
X22054714Y-14070476D01*
X22178524Y-14070476D02*
X22159476Y-14060952D01*
X22149952Y-14051428D01*
X22140429Y-14032381D01*
X22140429Y-13975238D01*
X22149952Y-13956190D01*
X22159476Y-13946667D01*
X22178524Y-13937143D01*
X22207095Y-13937143D01*
X22226143Y-13946667D01*
X22235667Y-13956190D01*
X22245190Y-13975238D01*
X22245190Y-14032381D01*
X22235667Y-14051428D01*
X22226143Y-14060952D01*
X22207095Y-14070476D01*
X22178524Y-14070476D01*
X22302333Y-13937143D02*
X22378524Y-13937143D01*
X22330905Y-13870476D02*
X22330905Y-14041905D01*
X22340429Y-14060952D01*
X22359476Y-14070476D01*
X22378524Y-14070476D01*
X22597571Y-13937143D02*
X22597571Y-14137143D01*
X22597571Y-13946667D02*
X22616619Y-13937143D01*
X22654714Y-13937143D01*
X22673762Y-13946667D01*
X22683286Y-13956190D01*
X22692809Y-13975238D01*
X22692809Y-14032381D01*
X22683286Y-14051428D01*
X22673762Y-14060952D01*
X22654714Y-14070476D01*
X22616619Y-14070476D01*
X22597571Y-14060952D01*
X22807095Y-14070476D02*
X22788048Y-14060952D01*
X22778524Y-14041905D01*
X22778524Y-13870476D01*
X22969000Y-14070476D02*
X22969000Y-13965714D01*
X22959476Y-13946667D01*
X22940428Y-13937143D01*
X22902333Y-13937143D01*
X22883286Y-13946667D01*
X22969000Y-14060952D02*
X22949952Y-14070476D01*
X22902333Y-14070476D01*
X22883286Y-14060952D01*
X22873762Y-14041905D01*
X22873762Y-14022857D01*
X22883286Y-14003809D01*
X22902333Y-13994286D01*
X22949952Y-13994286D01*
X22969000Y-13984762D01*
X23035667Y-13937143D02*
X23111857Y-13937143D01*
X23064238Y-13870476D02*
X23064238Y-14041905D01*
X23073762Y-14060952D01*
X23092809Y-14070476D01*
X23111857Y-14070476D01*
X23254714Y-14060952D02*
X23235667Y-14070476D01*
X23197571Y-14070476D01*
X23178524Y-14060952D01*
X23169000Y-14041905D01*
X23169000Y-13965714D01*
X23178524Y-13946667D01*
X23197571Y-13937143D01*
X23235667Y-13937143D01*
X23254714Y-13946667D01*
X23264238Y-13965714D01*
X23264238Y-13984762D01*
X23169000Y-14003809D01*
X23435667Y-14070476D02*
X23435667Y-13870476D01*
X23435667Y-14060952D02*
X23416619Y-14070476D01*
X23378524Y-14070476D01*
X23359476Y-14060952D01*
X23349952Y-14051428D01*
X23340428Y-14032381D01*
X23340428Y-13975238D01*
X23349952Y-13956190D01*
X23359476Y-13946667D01*
X23378524Y-13937143D01*
X23416619Y-13937143D01*
X23435667Y-13946667D01*
X23511857Y-14146667D02*
X23521381Y-14137143D01*
X23540428Y-14108571D01*
X23549952Y-14089524D01*
X23559476Y-14060952D01*
X23569000Y-14013333D01*
X23569000Y-13975238D01*
X23559476Y-13927619D01*
X23549952Y-13899048D01*
X23540428Y-13880000D01*
X23521381Y-13851428D01*
X23511857Y-13841905D01*
M02*
