G04 #@! TF.GenerationSoftware,KiCad,Pcbnew,(6.0.8)*
G04 #@! TF.CreationDate,2024-09-05T02:30:57-03:00*
G04 #@! TF.ProjectId,Projeto_01,50726f6a-6574-46f5-9f30-312e6b696361,rev?*
G04 #@! TF.SameCoordinates,Original*
G04 #@! TF.FileFunction,Paste,Top*
G04 #@! TF.FilePolarity,Positive*
%FSLAX46Y46*%
G04 Gerber Fmt 4.6, Leading zero omitted, Abs format (unit mm)*
G04 Created by KiCad (PCBNEW (6.0.8)) date 2024-09-05 02:30:57*
%MOMM*%
%LPD*%
G01*
G04 APERTURE LIST*
G04 Aperture macros list*
%AMRoundRect*
0 Rectangle with rounded corners*
0 $1 Rounding radius*
0 $2 $3 $4 $5 $6 $7 $8 $9 X,Y pos of 4 corners*
0 Add a 4 corners polygon primitive as box body*
4,1,4,$2,$3,$4,$5,$6,$7,$8,$9,$2,$3,0*
0 Add four circle primitives for the rounded corners*
1,1,$1+$1,$2,$3*
1,1,$1+$1,$4,$5*
1,1,$1+$1,$6,$7*
1,1,$1+$1,$8,$9*
0 Add four rect primitives between the rounded corners*
20,1,$1+$1,$2,$3,$4,$5,0*
20,1,$1+$1,$4,$5,$6,$7,0*
20,1,$1+$1,$6,$7,$8,$9,0*
20,1,$1+$1,$8,$9,$2,$3,0*%
G04 Aperture macros list end*
%ADD10RoundRect,0.250000X-0.350000X-0.450000X0.350000X-0.450000X0.350000X0.450000X-0.350000X0.450000X0*%
%ADD11RoundRect,0.150000X0.150000X-0.587500X0.150000X0.587500X-0.150000X0.587500X-0.150000X-0.587500X0*%
%ADD12RoundRect,0.250001X-0.462499X-0.624999X0.462499X-0.624999X0.462499X0.624999X-0.462499X0.624999X0*%
%ADD13RoundRect,0.250000X0.450000X-0.325000X0.450000X0.325000X-0.450000X0.325000X-0.450000X-0.325000X0*%
G04 APERTURE END LIST*
D10*
G04 #@! TO.C,R9*
X235490000Y-85090000D03*
X237490000Y-85090000D03*
G04 #@! TD*
G04 #@! TO.C,R8*
X232410000Y-85090000D03*
X230410000Y-85090000D03*
G04 #@! TD*
G04 #@! TO.C,R7*
X225330000Y-85090000D03*
X227330000Y-85090000D03*
G04 #@! TD*
G04 #@! TO.C,R6*
X222250000Y-85090000D03*
X220250000Y-85090000D03*
G04 #@! TD*
G04 #@! TO.C,R5*
X242300000Y-85090000D03*
X240300000Y-85090000D03*
G04 #@! TD*
G04 #@! TO.C,R4*
X255270000Y-85090000D03*
X257270000Y-85090000D03*
G04 #@! TD*
G04 #@! TO.C,R3*
X252190000Y-85090000D03*
X250190000Y-85090000D03*
G04 #@! TD*
G04 #@! TO.C,R2*
X245110000Y-85090000D03*
X247110000Y-85090000D03*
G04 #@! TD*
G04 #@! TO.C,R1*
X217170000Y-85090000D03*
X215170000Y-85090000D03*
G04 #@! TD*
D11*
G04 #@! TO.C,Q4*
X260670000Y-79677500D03*
X262570000Y-79677500D03*
X261620000Y-77802500D03*
G04 #@! TD*
G04 #@! TO.C,Q3*
X260670000Y-74597500D03*
X262570000Y-74597500D03*
X261620000Y-72722500D03*
G04 #@! TD*
G04 #@! TO.C,Q2*
X260670000Y-69517500D03*
X262570000Y-69517500D03*
X261620000Y-67642500D03*
G04 #@! TD*
G04 #@! TO.C,Q1*
X260670000Y-64437500D03*
X262570000Y-64437500D03*
X261620000Y-62562500D03*
G04 #@! TD*
D12*
G04 #@! TO.C,D7*
X176890000Y-101600000D03*
X173915000Y-101600000D03*
G04 #@! TD*
G04 #@! TO.C,D6*
X188870000Y-101600000D03*
X185895000Y-101600000D03*
G04 #@! TD*
G04 #@! TO.C,D5*
X182880000Y-101600000D03*
X179905000Y-101600000D03*
G04 #@! TD*
D13*
G04 #@! TO.C,D4*
X261620000Y-54365000D03*
X261620000Y-52315000D03*
G04 #@! TD*
G04 #@! TO.C,D3*
X261620000Y-49285000D03*
X261620000Y-47235000D03*
G04 #@! TD*
G04 #@! TO.C,D2*
X261620000Y-44205000D03*
X261620000Y-42155000D03*
G04 #@! TD*
G04 #@! TO.C,D1*
X261620000Y-39125000D03*
X261620000Y-37075000D03*
G04 #@! TD*
M02*
