G04 #@! TF.GenerationSoftware,KiCad,Pcbnew,(6.0.8)*
G04 #@! TF.CreationDate,2024-09-05T02:30:57-03:00*
G04 #@! TF.ProjectId,Projeto_01,50726f6a-6574-46f5-9f30-312e6b696361,rev?*
G04 #@! TF.SameCoordinates,Original*
G04 #@! TF.FileFunction,Soldermask,Top*
G04 #@! TF.FilePolarity,Negative*
%FSLAX46Y46*%
G04 Gerber Fmt 4.6, Leading zero omitted, Abs format (unit mm)*
G04 Created by KiCad (PCBNEW (6.0.8)) date 2024-09-05 02:30:57*
%MOMM*%
%LPD*%
G01*
G04 APERTURE LIST*
G04 Aperture macros list*
%AMRoundRect*
0 Rectangle with rounded corners*
0 $1 Rounding radius*
0 $2 $3 $4 $5 $6 $7 $8 $9 X,Y pos of 4 corners*
0 Add a 4 corners polygon primitive as box body*
4,1,4,$2,$3,$4,$5,$6,$7,$8,$9,$2,$3,0*
0 Add four circle primitives for the rounded corners*
1,1,$1+$1,$2,$3*
1,1,$1+$1,$4,$5*
1,1,$1+$1,$6,$7*
1,1,$1+$1,$8,$9*
0 Add four rect primitives between the rounded corners*
20,1,$1+$1,$2,$3,$4,$5,0*
20,1,$1+$1,$4,$5,$6,$7,0*
20,1,$1+$1,$6,$7,$8,$9,0*
20,1,$1+$1,$8,$9,$2,$3,0*%
G04 Aperture macros list end*
%ADD10R,1.300000X1.300000*%
%ADD11C,1.300000*%
%ADD12R,1.600000X2.400000*%
%ADD13O,1.600000X2.400000*%
%ADD14C,1.600000*%
%ADD15R,1.600000X1.600000*%
%ADD16C,2.000000*%
%ADD17C,1.440000*%
%ADD18RoundRect,0.250000X-0.350000X-0.450000X0.350000X-0.450000X0.350000X0.450000X-0.350000X0.450000X0*%
%ADD19RoundRect,0.150000X0.150000X-0.587500X0.150000X0.587500X-0.150000X0.587500X-0.150000X-0.587500X0*%
%ADD20R,1.700000X1.700000*%
%ADD21O,1.700000X1.700000*%
%ADD22C,2.500000*%
%ADD23R,1.800000X2.600000*%
%ADD24O,1.800000X2.600000*%
%ADD25R,2.000000X2.000000*%
%ADD26RoundRect,0.250001X-0.462499X-0.624999X0.462499X-0.624999X0.462499X0.624999X-0.462499X0.624999X0*%
%ADD27RoundRect,0.250000X0.450000X-0.325000X0.450000X0.325000X-0.450000X0.325000X-0.450000X-0.325000X0*%
%ADD28R,3.000000X3.000000*%
%ADD29C,3.000000*%
G04 APERTURE END LIST*
D10*
G04 #@! TO.C,U6*
X207010000Y-83820000D03*
D11*
X208280000Y-85090000D03*
X207010000Y-86360000D03*
G04 #@! TD*
D12*
G04 #@! TO.C,U5*
X201940000Y-129520000D03*
D13*
X204480000Y-129520000D03*
X207020000Y-129520000D03*
X209560000Y-129520000D03*
X212100000Y-129520000D03*
X214640000Y-129520000D03*
X217180000Y-129520000D03*
X219720000Y-129520000D03*
X222260000Y-129520000D03*
X224800000Y-129520000D03*
X227340000Y-129520000D03*
X229880000Y-129520000D03*
X232420000Y-129520000D03*
X234960000Y-129520000D03*
X237500000Y-129520000D03*
X240040000Y-129520000D03*
X242580000Y-129520000D03*
X245120000Y-129520000D03*
X247660000Y-129520000D03*
X250200000Y-129520000D03*
X252740000Y-129520000D03*
X255280000Y-129520000D03*
X257820000Y-129520000D03*
X260360000Y-129520000D03*
X260360000Y-114280000D03*
X257820000Y-114280000D03*
X255280000Y-114280000D03*
X252740000Y-114280000D03*
X250200000Y-114280000D03*
X247660000Y-114280000D03*
X245120000Y-114280000D03*
X242580000Y-114280000D03*
X240040000Y-114280000D03*
X237500000Y-114280000D03*
X234960000Y-114280000D03*
X232420000Y-114280000D03*
X229880000Y-114280000D03*
X227340000Y-114280000D03*
X224800000Y-114280000D03*
X222260000Y-114280000D03*
X219720000Y-114280000D03*
X217180000Y-114280000D03*
X214640000Y-114280000D03*
X212100000Y-114280000D03*
X209560000Y-114280000D03*
X207020000Y-114280000D03*
X204480000Y-114280000D03*
X201940000Y-114280000D03*
G04 #@! TD*
D14*
G04 #@! TO.C,U4*
X248920000Y-91317500D03*
X251460000Y-91317500D03*
X254000000Y-91317500D03*
X256540000Y-91317500D03*
X259080000Y-91317500D03*
X259080000Y-106557500D03*
X256540000Y-106557500D03*
X254000000Y-106557500D03*
X251460000Y-106557500D03*
D15*
X248920000Y-106557500D03*
G04 #@! TD*
D14*
G04 #@! TO.C,U3*
X233680000Y-91317500D03*
X236220000Y-91317500D03*
X238760000Y-91317500D03*
X241300000Y-91317500D03*
X243840000Y-91317500D03*
X243840000Y-106557500D03*
X241300000Y-106557500D03*
X238760000Y-106557500D03*
X236220000Y-106557500D03*
D15*
X233680000Y-106557500D03*
G04 #@! TD*
D14*
G04 #@! TO.C,U2*
X218440000Y-91317500D03*
X220980000Y-91317500D03*
X223520000Y-91317500D03*
X226060000Y-91317500D03*
X228600000Y-91317500D03*
X228600000Y-106557500D03*
X226060000Y-106557500D03*
X223520000Y-106557500D03*
X220980000Y-106557500D03*
D15*
X218440000Y-106557500D03*
G04 #@! TD*
D14*
G04 #@! TO.C,U1*
X203200000Y-91317500D03*
X205740000Y-91317500D03*
X208280000Y-91317500D03*
X210820000Y-91317500D03*
X213360000Y-91317500D03*
X213360000Y-106557500D03*
X210820000Y-106557500D03*
X208280000Y-106557500D03*
X205740000Y-106557500D03*
D15*
X203200000Y-106557500D03*
G04 #@! TD*
D16*
G04 #@! TO.C,SW4*
X185270000Y-97210000D03*
X191770000Y-97210000D03*
X191770000Y-92710000D03*
X185270000Y-92710000D03*
G04 #@! TD*
G04 #@! TO.C,SW3*
X185420000Y-88610000D03*
X191920000Y-88610000D03*
X191920000Y-84110000D03*
X185420000Y-84110000D03*
G04 #@! TD*
G04 #@! TO.C,SW2*
X174550000Y-92710000D03*
X181050000Y-92710000D03*
X181050000Y-97210000D03*
X174550000Y-97210000D03*
G04 #@! TD*
G04 #@! TO.C,SW1*
X174550000Y-84110000D03*
X181050000Y-84110000D03*
X181050000Y-88610000D03*
X174550000Y-88610000D03*
G04 #@! TD*
D17*
G04 #@! TO.C,RV1*
X198120000Y-88900000D03*
X198120000Y-86360000D03*
X198120000Y-83820000D03*
G04 #@! TD*
D18*
G04 #@! TO.C,R9*
X235490000Y-85090000D03*
X237490000Y-85090000D03*
G04 #@! TD*
G04 #@! TO.C,R8*
X232410000Y-85090000D03*
X230410000Y-85090000D03*
G04 #@! TD*
G04 #@! TO.C,R7*
X225330000Y-85090000D03*
X227330000Y-85090000D03*
G04 #@! TD*
G04 #@! TO.C,R6*
X222250000Y-85090000D03*
X220250000Y-85090000D03*
G04 #@! TD*
G04 #@! TO.C,R5*
X242300000Y-85090000D03*
X240300000Y-85090000D03*
G04 #@! TD*
G04 #@! TO.C,R4*
X255270000Y-85090000D03*
X257270000Y-85090000D03*
G04 #@! TD*
G04 #@! TO.C,R3*
X252190000Y-85090000D03*
X250190000Y-85090000D03*
G04 #@! TD*
G04 #@! TO.C,R2*
X245110000Y-85090000D03*
X247110000Y-85090000D03*
G04 #@! TD*
G04 #@! TO.C,R1*
X217170000Y-85090000D03*
X215170000Y-85090000D03*
G04 #@! TD*
D19*
G04 #@! TO.C,Q4*
X260670000Y-79677500D03*
X262570000Y-79677500D03*
X261620000Y-77802500D03*
G04 #@! TD*
G04 #@! TO.C,Q3*
X260670000Y-74597500D03*
X262570000Y-74597500D03*
X261620000Y-72722500D03*
G04 #@! TD*
G04 #@! TO.C,Q2*
X260670000Y-69517500D03*
X262570000Y-69517500D03*
X261620000Y-67642500D03*
G04 #@! TD*
G04 #@! TO.C,Q1*
X260670000Y-64437500D03*
X262570000Y-64437500D03*
X261620000Y-62562500D03*
G04 #@! TD*
D20*
G04 #@! TO.C,J1*
X196830000Y-101590000D03*
D21*
X199370000Y-101590000D03*
X196830000Y-99050000D03*
X199370000Y-99050000D03*
X196830000Y-96510000D03*
X199370000Y-96510000D03*
X196830000Y-93970000D03*
X199370000Y-93970000D03*
G04 #@! TD*
D22*
G04 #@! TO.C,DS1*
X253900000Y-76740000D03*
X255400000Y-40740000D03*
X177900000Y-76740000D03*
X176400000Y-40740000D03*
D23*
X217120000Y-78740000D03*
D24*
X214580000Y-78740000D03*
X212040000Y-78740000D03*
X209500000Y-78740000D03*
X206960000Y-78740000D03*
X204420000Y-78740000D03*
X201880000Y-78740000D03*
X199340000Y-78740000D03*
X196800000Y-78740000D03*
X194260000Y-78740000D03*
X191720000Y-78740000D03*
X189180000Y-78740000D03*
X186634920Y-78737460D03*
X184100000Y-78740000D03*
X222200000Y-78740000D03*
X219654920Y-78737460D03*
D25*
X253860000Y-54600000D03*
X256400000Y-52060000D03*
X256400000Y-54600000D03*
X253860000Y-59680000D03*
X256400000Y-62220000D03*
X256400000Y-59680000D03*
G04 #@! TD*
D26*
G04 #@! TO.C,D7*
X176890000Y-101600000D03*
X173915000Y-101600000D03*
G04 #@! TD*
G04 #@! TO.C,D6*
X188870000Y-101600000D03*
X185895000Y-101600000D03*
G04 #@! TD*
G04 #@! TO.C,D5*
X182880000Y-101600000D03*
X179905000Y-101600000D03*
G04 #@! TD*
D27*
G04 #@! TO.C,D4*
X261620000Y-54365000D03*
X261620000Y-52315000D03*
G04 #@! TD*
G04 #@! TO.C,D3*
X261620000Y-49285000D03*
X261620000Y-47235000D03*
G04 #@! TD*
G04 #@! TO.C,D2*
X261620000Y-44205000D03*
X261620000Y-42155000D03*
G04 #@! TD*
G04 #@! TO.C,D1*
X261620000Y-39125000D03*
X261620000Y-37075000D03*
G04 #@! TD*
D28*
G04 #@! TO.C,BT1*
X196850000Y-118110000D03*
D29*
X176360000Y-118110000D03*
G04 #@! TD*
M02*
