M48
; DRILL file {KiCad (6.0.8)} date Wed Sep 25 21:24:48 2024
; FORMAT={-:-/ absolute / inch / decimal}
; #@! TF.CreationDate,2024-09-25T21:24:48-03:00
; #@! TF.GenerationSoftware,Kicad,Pcbnew,(6.0.8)
; #@! TF.FileFunction,Plated,1,2,PTH
FMAT,2
INCH
; #@! TA.AperFunction,Plated,PTH,ViaDrill
T1C0.0157
; #@! TA.AperFunction,Plated,PTH,ComponentDrill
T2C0.0295
; #@! TA.AperFunction,Plated,PTH,ComponentDrill
T3C0.0315
; #@! TA.AperFunction,Plated,PTH,ComponentDrill
T4C0.0394
; #@! TA.AperFunction,Plated,PTH,ComponentDrill
T5C0.0433
; #@! TA.AperFunction,Plated,PTH,ComponentDrill
T6C0.0472
; #@! TA.AperFunction,Plated,PTH,ComponentDrill
T7C0.0591
; #@! TA.AperFunction,Plated,PTH,ComponentDrill
T8C0.1693
%
G90
G05
T1
X6.9501Y-4.2998
X7.2975Y-3.916
X7.3948Y-3.3573
X7.4819Y-4.5426
X7.7388Y-4.8512
X8.0422Y-4.0127
X8.4977Y-4.2753
X9.0319Y-2.8774
X9.3314Y-3.2855
X9.3776Y-2.4992
X9.3776Y-3.2368
X9.6076Y-3.2439
X9.6253Y-3.45
X9.6586Y-3.1061
X9.661Y-3.7451
X9.8057Y-2.8065
X9.9236Y-3.1396
X9.9442Y-2.676
X9.961Y-2.8527
X10.1125Y-2.2299
X10.2059Y-2.1482
X10.2356Y-3.0137
X10.3425Y-3.2429
X10.3657Y-1.6596
X10.4382Y-5.047
X10.4606Y-3.35
T2
X8.15Y-3.3
X8.15Y-3.4
X8.2Y-3.35
T3
X7.8Y-3.3
X7.8Y-3.4
X7.8Y-3.5
X7.9504Y-4.4992
X7.9504Y-5.0992
X8.0Y-3.5952
X8.0Y-4.1952
X8.0504Y-4.4992
X8.0504Y-5.0992
X8.1Y-3.5952
X8.1Y-4.1952
X8.1504Y-4.4992
X8.1504Y-5.0992
X8.2Y-3.5952
X8.2Y-4.1952
X8.2504Y-4.4992
X8.2504Y-5.0992
X8.3Y-3.5952
X8.3Y-4.1952
X8.3504Y-4.4992
X8.3504Y-5.0992
X8.4Y-3.5952
X8.4Y-4.1952
X8.4504Y-4.4992
X8.4504Y-5.0992
X8.5504Y-4.4992
X8.5504Y-5.0992
X8.6Y-3.5952
X8.6Y-4.1952
X8.6504Y-4.4992
X8.6504Y-5.0992
X8.7Y-3.5952
X8.7Y-4.1952
X8.7504Y-4.4992
X8.7504Y-5.0992
X8.8Y-3.5952
X8.8Y-4.1952
X8.8504Y-4.4992
X8.8504Y-5.0992
X8.9Y-3.5952
X8.9Y-4.1952
X8.9504Y-4.4992
X8.9504Y-5.0992
X9.0Y-3.5952
X9.0Y-4.1952
X9.0504Y-4.4992
X9.0504Y-5.0992
X9.1504Y-4.4992
X9.1504Y-5.0992
X9.2Y-3.5952
X9.2Y-4.1952
X9.2504Y-4.4992
X9.2504Y-5.0992
X9.3Y-3.5952
X9.3Y-4.1952
X9.3504Y-4.4992
X9.3504Y-5.0992
X9.4Y-3.5952
X9.4Y-4.1952
X9.4504Y-4.4992
X9.4504Y-5.0992
X9.5Y-3.5952
X9.5Y-4.1952
X9.5504Y-4.4992
X9.5504Y-5.0992
X9.6Y-3.5952
X9.6Y-4.1952
X9.6504Y-4.4992
X9.6504Y-5.0992
X9.7504Y-4.4992
X9.7504Y-5.0992
X9.8Y-3.5952
X9.8Y-4.1952
X9.8504Y-4.4992
X9.8504Y-5.0992
X9.9Y-3.5952
X9.9Y-4.1952
X10.0Y-3.5952
X10.0Y-4.1952
X10.1Y-3.5952
X10.1Y-4.1952
X10.2Y-3.5952
X10.2Y-4.1952
T4
X7.7492Y-3.6996
X7.7492Y-3.7996
X7.7492Y-3.8996
X7.7492Y-3.9996
X7.8492Y-3.6996
X7.8492Y-3.7996
X7.8492Y-3.8996
X7.8492Y-3.9996
X9.9945Y-2.1496
X9.9945Y-2.3496
X10.0945Y-2.0496
X10.0945Y-2.1496
X10.0945Y-2.3496
X10.0945Y-2.4496
T5
X6.872Y-3.3114
X6.872Y-3.4886
X6.872Y-3.65
X6.872Y-3.8272
X7.128Y-3.3114
X7.128Y-3.4886
X7.128Y-3.65
X7.128Y-3.8272
X7.2941Y-3.65
X7.2941Y-3.8272
X7.3Y-3.3114
X7.3Y-3.4886
X7.55Y-3.65
X7.55Y-3.8272
X7.5559Y-3.3114
X7.5559Y-3.4886
T6
X7.248Y-3.1
X7.3478Y-3.0999
X7.448Y-3.1
X7.548Y-3.1
X7.648Y-3.1
X7.748Y-3.1
X7.848Y-3.1
X7.948Y-3.1
X8.048Y-3.1
X8.148Y-3.1
X8.248Y-3.1
X8.348Y-3.1
X8.448Y-3.1
X8.548Y-3.1
X8.6478Y-3.0999
X8.748Y-3.1
T7
X6.9433Y-4.65
X7.75Y-4.65
T8
X6.775Y-1.575
X6.775Y-3.05
X7.675Y-5.05
X10.325Y-5.075
T0
M30
