G04 #@! TF.GenerationSoftware,KiCad,Pcbnew,(6.0.8)*
G04 #@! TF.CreationDate,2024-09-25T21:25:08-03:00*
G04 #@! TF.ProjectId,Projeto_01,50726f6a-6574-46f5-9f30-312e6b696361,rev?*
G04 #@! TF.SameCoordinates,Original*
G04 #@! TF.FileFunction,Legend,Top*
G04 #@! TF.FilePolarity,Positive*
%FSLAX46Y46*%
G04 Gerber Fmt 4.6, Leading zero omitted, Abs format (unit mm)*
G04 Created by KiCad (PCBNEW (6.0.8)) date 2024-09-25 21:25:08*
%MOMM*%
%LPD*%
G01*
G04 APERTURE LIST*
%ADD10C,0.150000*%
%ADD11C,0.120000*%
G04 APERTURE END LIST*
D10*
G04 #@! TO.C,FID1*
X193873571Y-104894071D02*
X193540238Y-104894071D01*
X193540238Y-105417880D02*
X193540238Y-104417880D01*
X194016428Y-104417880D01*
X194397380Y-105417880D02*
X194397380Y-104417880D01*
X194873571Y-105417880D02*
X194873571Y-104417880D01*
X195111666Y-104417880D01*
X195254523Y-104465500D01*
X195349761Y-104560738D01*
X195397380Y-104655976D01*
X195445000Y-104846452D01*
X195445000Y-104989309D01*
X195397380Y-105179785D01*
X195349761Y-105275023D01*
X195254523Y-105370261D01*
X195111666Y-105417880D01*
X194873571Y-105417880D01*
X196397380Y-105417880D02*
X195825952Y-105417880D01*
X196111666Y-105417880D02*
X196111666Y-104417880D01*
X196016428Y-104560738D01*
X195921190Y-104655976D01*
X195825952Y-104703595D01*
G04 #@! TO.C,R9*
X236323333Y-83892380D02*
X235990000Y-83416190D01*
X235751904Y-83892380D02*
X235751904Y-82892380D01*
X236132857Y-82892380D01*
X236228095Y-82940000D01*
X236275714Y-82987619D01*
X236323333Y-83082857D01*
X236323333Y-83225714D01*
X236275714Y-83320952D01*
X236228095Y-83368571D01*
X236132857Y-83416190D01*
X235751904Y-83416190D01*
X236799523Y-83892380D02*
X236990000Y-83892380D01*
X237085238Y-83844761D01*
X237132857Y-83797142D01*
X237228095Y-83654285D01*
X237275714Y-83463809D01*
X237275714Y-83082857D01*
X237228095Y-82987619D01*
X237180476Y-82940000D01*
X237085238Y-82892380D01*
X236894761Y-82892380D01*
X236799523Y-82940000D01*
X236751904Y-82987619D01*
X236704285Y-83082857D01*
X236704285Y-83320952D01*
X236751904Y-83416190D01*
X236799523Y-83463809D01*
X236894761Y-83511428D01*
X237085238Y-83511428D01*
X237180476Y-83463809D01*
X237228095Y-83416190D01*
X237275714Y-83320952D01*
X235799523Y-87192380D02*
X235228095Y-87192380D01*
X235513809Y-87192380D02*
X235513809Y-86192380D01*
X235418571Y-86335238D01*
X235323333Y-86430476D01*
X235228095Y-86478095D01*
X236418571Y-86192380D02*
X236513809Y-86192380D01*
X236609047Y-86240000D01*
X236656666Y-86287619D01*
X236704285Y-86382857D01*
X236751904Y-86573333D01*
X236751904Y-86811428D01*
X236704285Y-87001904D01*
X236656666Y-87097142D01*
X236609047Y-87144761D01*
X236513809Y-87192380D01*
X236418571Y-87192380D01*
X236323333Y-87144761D01*
X236275714Y-87097142D01*
X236228095Y-87001904D01*
X236180476Y-86811428D01*
X236180476Y-86573333D01*
X236228095Y-86382857D01*
X236275714Y-86287619D01*
X236323333Y-86240000D01*
X236418571Y-86192380D01*
X237180476Y-87192380D02*
X237180476Y-86192380D01*
X237751904Y-87192380D02*
X237323333Y-86620952D01*
X237751904Y-86192380D02*
X237180476Y-86763809D01*
G04 #@! TO.C,R7*
X226163333Y-83892380D02*
X225830000Y-83416190D01*
X225591904Y-83892380D02*
X225591904Y-82892380D01*
X225972857Y-82892380D01*
X226068095Y-82940000D01*
X226115714Y-82987619D01*
X226163333Y-83082857D01*
X226163333Y-83225714D01*
X226115714Y-83320952D01*
X226068095Y-83368571D01*
X225972857Y-83416190D01*
X225591904Y-83416190D01*
X226496666Y-82892380D02*
X227163333Y-82892380D01*
X226734761Y-83892380D01*
X225639523Y-87192380D02*
X225068095Y-87192380D01*
X225353809Y-87192380D02*
X225353809Y-86192380D01*
X225258571Y-86335238D01*
X225163333Y-86430476D01*
X225068095Y-86478095D01*
X226258571Y-86192380D02*
X226353809Y-86192380D01*
X226449047Y-86240000D01*
X226496666Y-86287619D01*
X226544285Y-86382857D01*
X226591904Y-86573333D01*
X226591904Y-86811428D01*
X226544285Y-87001904D01*
X226496666Y-87097142D01*
X226449047Y-87144761D01*
X226353809Y-87192380D01*
X226258571Y-87192380D01*
X226163333Y-87144761D01*
X226115714Y-87097142D01*
X226068095Y-87001904D01*
X226020476Y-86811428D01*
X226020476Y-86573333D01*
X226068095Y-86382857D01*
X226115714Y-86287619D01*
X226163333Y-86240000D01*
X226258571Y-86192380D01*
X227020476Y-87192380D02*
X227020476Y-86192380D01*
X227591904Y-87192380D02*
X227163333Y-86620952D01*
X227591904Y-86192380D02*
X227020476Y-86763809D01*
G04 #@! TO.C,D3*
X260422380Y-48998095D02*
X259422380Y-48998095D01*
X259422380Y-48760000D01*
X259470000Y-48617142D01*
X259565238Y-48521904D01*
X259660476Y-48474285D01*
X259850952Y-48426666D01*
X259993809Y-48426666D01*
X260184285Y-48474285D01*
X260279523Y-48521904D01*
X260374761Y-48617142D01*
X260422380Y-48760000D01*
X260422380Y-48998095D01*
X259422380Y-48093333D02*
X259422380Y-47474285D01*
X259803333Y-47807619D01*
X259803333Y-47664761D01*
X259850952Y-47569523D01*
X259898571Y-47521904D01*
X259993809Y-47474285D01*
X260231904Y-47474285D01*
X260327142Y-47521904D01*
X260374761Y-47569523D01*
X260422380Y-47664761D01*
X260422380Y-47950476D01*
X260374761Y-48045714D01*
X260327142Y-48093333D01*
X263722380Y-49760000D02*
X263722380Y-50236190D01*
X262722380Y-50236190D01*
X263198571Y-49426666D02*
X263198571Y-49093333D01*
X263722380Y-48950476D02*
X263722380Y-49426666D01*
X262722380Y-49426666D01*
X262722380Y-48950476D01*
X263722380Y-48521904D02*
X262722380Y-48521904D01*
X262722380Y-48283809D01*
X262770000Y-48140952D01*
X262865238Y-48045714D01*
X262960476Y-47998095D01*
X263150952Y-47950476D01*
X263293809Y-47950476D01*
X263484285Y-47998095D01*
X263579523Y-48045714D01*
X263674761Y-48140952D01*
X263722380Y-48283809D01*
X263722380Y-48521904D01*
X263817619Y-47760000D02*
X263817619Y-46998095D01*
X262817619Y-46807619D02*
X262770000Y-46760000D01*
X262722380Y-46664761D01*
X262722380Y-46426666D01*
X262770000Y-46331428D01*
X262817619Y-46283809D01*
X262912857Y-46236190D01*
X263008095Y-46236190D01*
X263150952Y-46283809D01*
X263722380Y-46855238D01*
X263722380Y-46236190D01*
G04 #@! TO.C,SW2*
X173124761Y-96293333D02*
X173172380Y-96150476D01*
X173172380Y-95912380D01*
X173124761Y-95817142D01*
X173077142Y-95769523D01*
X172981904Y-95721904D01*
X172886666Y-95721904D01*
X172791428Y-95769523D01*
X172743809Y-95817142D01*
X172696190Y-95912380D01*
X172648571Y-96102857D01*
X172600952Y-96198095D01*
X172553333Y-96245714D01*
X172458095Y-96293333D01*
X172362857Y-96293333D01*
X172267619Y-96245714D01*
X172220000Y-96198095D01*
X172172380Y-96102857D01*
X172172380Y-95864761D01*
X172220000Y-95721904D01*
X172172380Y-95388571D02*
X173172380Y-95150476D01*
X172458095Y-94960000D01*
X173172380Y-94769523D01*
X172172380Y-94531428D01*
X172267619Y-94198095D02*
X172220000Y-94150476D01*
X172172380Y-94055238D01*
X172172380Y-93817142D01*
X172220000Y-93721904D01*
X172267619Y-93674285D01*
X172362857Y-93626666D01*
X172458095Y-93626666D01*
X172600952Y-93674285D01*
X173172380Y-94245714D01*
X173172380Y-93626666D01*
X177038095Y-90914761D02*
X177180952Y-90962380D01*
X177419047Y-90962380D01*
X177514285Y-90914761D01*
X177561904Y-90867142D01*
X177609523Y-90771904D01*
X177609523Y-90676666D01*
X177561904Y-90581428D01*
X177514285Y-90533809D01*
X177419047Y-90486190D01*
X177228571Y-90438571D01*
X177133333Y-90390952D01*
X177085714Y-90343333D01*
X177038095Y-90248095D01*
X177038095Y-90152857D01*
X177085714Y-90057619D01*
X177133333Y-90010000D01*
X177228571Y-89962380D01*
X177466666Y-89962380D01*
X177609523Y-90010000D01*
X178561904Y-90962380D02*
X177990476Y-90962380D01*
X178276190Y-90962380D02*
X178276190Y-89962380D01*
X178180952Y-90105238D01*
X178085714Y-90200476D01*
X177990476Y-90248095D01*
G04 #@! TO.C,H3*
X171323095Y-35707380D02*
X171323095Y-34707380D01*
X171323095Y-35183571D02*
X171894523Y-35183571D01*
X171894523Y-35707380D02*
X171894523Y-34707380D01*
X172275476Y-34707380D02*
X172894523Y-34707380D01*
X172561190Y-35088333D01*
X172704047Y-35088333D01*
X172799285Y-35135952D01*
X172846904Y-35183571D01*
X172894523Y-35278809D01*
X172894523Y-35516904D01*
X172846904Y-35612142D01*
X172799285Y-35659761D01*
X172704047Y-35707380D01*
X172418333Y-35707380D01*
X172323095Y-35659761D01*
X172275476Y-35612142D01*
G04 #@! TO.C,FID2*
X196794571Y-93972071D02*
X196461238Y-93972071D01*
X196461238Y-94495880D02*
X196461238Y-93495880D01*
X196937428Y-93495880D01*
X197318380Y-94495880D02*
X197318380Y-93495880D01*
X197794571Y-94495880D02*
X197794571Y-93495880D01*
X198032666Y-93495880D01*
X198175523Y-93543500D01*
X198270761Y-93638738D01*
X198318380Y-93733976D01*
X198366000Y-93924452D01*
X198366000Y-94067309D01*
X198318380Y-94257785D01*
X198270761Y-94353023D01*
X198175523Y-94448261D01*
X198032666Y-94495880D01*
X197794571Y-94495880D01*
X198746952Y-93591119D02*
X198794571Y-93543500D01*
X198889809Y-93495880D01*
X199127904Y-93495880D01*
X199223142Y-93543500D01*
X199270761Y-93591119D01*
X199318380Y-93686357D01*
X199318380Y-93781595D01*
X199270761Y-93924452D01*
X198699333Y-94495880D01*
X199318380Y-94495880D01*
G04 #@! TO.C,D6*
X186586904Y-100147380D02*
X186586904Y-99147380D01*
X186825000Y-99147380D01*
X186967857Y-99195000D01*
X187063095Y-99290238D01*
X187110714Y-99385476D01*
X187158333Y-99575952D01*
X187158333Y-99718809D01*
X187110714Y-99909285D01*
X187063095Y-100004523D01*
X186967857Y-100099761D01*
X186825000Y-100147380D01*
X186586904Y-100147380D01*
X188015476Y-99147380D02*
X187825000Y-99147380D01*
X187729761Y-99195000D01*
X187682142Y-99242619D01*
X187586904Y-99385476D01*
X187539285Y-99575952D01*
X187539285Y-99956904D01*
X187586904Y-100052142D01*
X187634523Y-100099761D01*
X187729761Y-100147380D01*
X187920238Y-100147380D01*
X188015476Y-100099761D01*
X188063095Y-100052142D01*
X188110714Y-99956904D01*
X188110714Y-99718809D01*
X188063095Y-99623571D01*
X188015476Y-99575952D01*
X187920238Y-99528333D01*
X187729761Y-99528333D01*
X187634523Y-99575952D01*
X187586904Y-99623571D01*
X187539285Y-99718809D01*
X185198095Y-103909761D02*
X185340952Y-103957380D01*
X185579047Y-103957380D01*
X185674285Y-103909761D01*
X185721904Y-103862142D01*
X185769523Y-103766904D01*
X185769523Y-103671666D01*
X185721904Y-103576428D01*
X185674285Y-103528809D01*
X185579047Y-103481190D01*
X185388571Y-103433571D01*
X185293333Y-103385952D01*
X185245714Y-103338333D01*
X185198095Y-103243095D01*
X185198095Y-103147857D01*
X185245714Y-103052619D01*
X185293333Y-103005000D01*
X185388571Y-102957380D01*
X185626666Y-102957380D01*
X185769523Y-103005000D01*
X186198095Y-103957380D02*
X186198095Y-102957380D01*
X186531428Y-103671666D01*
X186864761Y-102957380D01*
X186864761Y-103957380D01*
X187769523Y-103290714D02*
X187769523Y-103957380D01*
X187531428Y-102909761D02*
X187293333Y-103624047D01*
X187912380Y-103624047D01*
X188483809Y-102957380D02*
X188579047Y-102957380D01*
X188674285Y-103005000D01*
X188721904Y-103052619D01*
X188769523Y-103147857D01*
X188817142Y-103338333D01*
X188817142Y-103576428D01*
X188769523Y-103766904D01*
X188721904Y-103862142D01*
X188674285Y-103909761D01*
X188579047Y-103957380D01*
X188483809Y-103957380D01*
X188388571Y-103909761D01*
X188340952Y-103862142D01*
X188293333Y-103766904D01*
X188245714Y-103576428D01*
X188245714Y-103338333D01*
X188293333Y-103147857D01*
X188340952Y-103052619D01*
X188388571Y-103005000D01*
X188483809Y-102957380D01*
X189436190Y-102957380D02*
X189531428Y-102957380D01*
X189626666Y-103005000D01*
X189674285Y-103052619D01*
X189721904Y-103147857D01*
X189769523Y-103338333D01*
X189769523Y-103576428D01*
X189721904Y-103766904D01*
X189674285Y-103862142D01*
X189626666Y-103909761D01*
X189531428Y-103957380D01*
X189436190Y-103957380D01*
X189340952Y-103909761D01*
X189293333Y-103862142D01*
X189245714Y-103766904D01*
X189198095Y-103576428D01*
X189198095Y-103338333D01*
X189245714Y-103147857D01*
X189293333Y-103052619D01*
X189340952Y-103005000D01*
X189436190Y-102957380D01*
X190102857Y-102957380D02*
X190769523Y-102957380D01*
X190340952Y-103957380D01*
G04 #@! TO.C,R1*
X216003333Y-83892380D02*
X215670000Y-83416190D01*
X215431904Y-83892380D02*
X215431904Y-82892380D01*
X215812857Y-82892380D01*
X215908095Y-82940000D01*
X215955714Y-82987619D01*
X216003333Y-83082857D01*
X216003333Y-83225714D01*
X215955714Y-83320952D01*
X215908095Y-83368571D01*
X215812857Y-83416190D01*
X215431904Y-83416190D01*
X216955714Y-83892380D02*
X216384285Y-83892380D01*
X216670000Y-83892380D02*
X216670000Y-82892380D01*
X216574761Y-83035238D01*
X216479523Y-83130476D01*
X216384285Y-83178095D01*
X215479523Y-87192380D02*
X214908095Y-87192380D01*
X215193809Y-87192380D02*
X215193809Y-86192380D01*
X215098571Y-86335238D01*
X215003333Y-86430476D01*
X214908095Y-86478095D01*
X216098571Y-86192380D02*
X216193809Y-86192380D01*
X216289047Y-86240000D01*
X216336666Y-86287619D01*
X216384285Y-86382857D01*
X216431904Y-86573333D01*
X216431904Y-86811428D01*
X216384285Y-87001904D01*
X216336666Y-87097142D01*
X216289047Y-87144761D01*
X216193809Y-87192380D01*
X216098571Y-87192380D01*
X216003333Y-87144761D01*
X215955714Y-87097142D01*
X215908095Y-87001904D01*
X215860476Y-86811428D01*
X215860476Y-86573333D01*
X215908095Y-86382857D01*
X215955714Y-86287619D01*
X216003333Y-86240000D01*
X216098571Y-86192380D01*
X216860476Y-87192380D02*
X216860476Y-86192380D01*
X217431904Y-87192380D02*
X217003333Y-86620952D01*
X217431904Y-86192380D02*
X216860476Y-86763809D01*
G04 #@! TO.C,R2*
X245943333Y-83892380D02*
X245610000Y-83416190D01*
X245371904Y-83892380D02*
X245371904Y-82892380D01*
X245752857Y-82892380D01*
X245848095Y-82940000D01*
X245895714Y-82987619D01*
X245943333Y-83082857D01*
X245943333Y-83225714D01*
X245895714Y-83320952D01*
X245848095Y-83368571D01*
X245752857Y-83416190D01*
X245371904Y-83416190D01*
X246324285Y-82987619D02*
X246371904Y-82940000D01*
X246467142Y-82892380D01*
X246705238Y-82892380D01*
X246800476Y-82940000D01*
X246848095Y-82987619D01*
X246895714Y-83082857D01*
X246895714Y-83178095D01*
X246848095Y-83320952D01*
X246276666Y-83892380D01*
X246895714Y-83892380D01*
X245895714Y-87192380D02*
X245324285Y-87192380D01*
X245610000Y-87192380D02*
X245610000Y-86192380D01*
X245514761Y-86335238D01*
X245419523Y-86430476D01*
X245324285Y-86478095D01*
X246324285Y-87192380D02*
X246324285Y-86192380D01*
X246895714Y-87192380D02*
X246467142Y-86620952D01*
X246895714Y-86192380D02*
X246324285Y-86763809D01*
G04 #@! TO.C,R6*
X221083333Y-83892380D02*
X220750000Y-83416190D01*
X220511904Y-83892380D02*
X220511904Y-82892380D01*
X220892857Y-82892380D01*
X220988095Y-82940000D01*
X221035714Y-82987619D01*
X221083333Y-83082857D01*
X221083333Y-83225714D01*
X221035714Y-83320952D01*
X220988095Y-83368571D01*
X220892857Y-83416190D01*
X220511904Y-83416190D01*
X221940476Y-82892380D02*
X221750000Y-82892380D01*
X221654761Y-82940000D01*
X221607142Y-82987619D01*
X221511904Y-83130476D01*
X221464285Y-83320952D01*
X221464285Y-83701904D01*
X221511904Y-83797142D01*
X221559523Y-83844761D01*
X221654761Y-83892380D01*
X221845238Y-83892380D01*
X221940476Y-83844761D01*
X221988095Y-83797142D01*
X222035714Y-83701904D01*
X222035714Y-83463809D01*
X221988095Y-83368571D01*
X221940476Y-83320952D01*
X221845238Y-83273333D01*
X221654761Y-83273333D01*
X221559523Y-83320952D01*
X221511904Y-83368571D01*
X221464285Y-83463809D01*
X220559523Y-87192380D02*
X219988095Y-87192380D01*
X220273809Y-87192380D02*
X220273809Y-86192380D01*
X220178571Y-86335238D01*
X220083333Y-86430476D01*
X219988095Y-86478095D01*
X221178571Y-86192380D02*
X221273809Y-86192380D01*
X221369047Y-86240000D01*
X221416666Y-86287619D01*
X221464285Y-86382857D01*
X221511904Y-86573333D01*
X221511904Y-86811428D01*
X221464285Y-87001904D01*
X221416666Y-87097142D01*
X221369047Y-87144761D01*
X221273809Y-87192380D01*
X221178571Y-87192380D01*
X221083333Y-87144761D01*
X221035714Y-87097142D01*
X220988095Y-87001904D01*
X220940476Y-86811428D01*
X220940476Y-86573333D01*
X220988095Y-86382857D01*
X221035714Y-86287619D01*
X221083333Y-86240000D01*
X221178571Y-86192380D01*
X221940476Y-87192380D02*
X221940476Y-86192380D01*
X222511904Y-87192380D02*
X222083333Y-86620952D01*
X222511904Y-86192380D02*
X221940476Y-86763809D01*
G04 #@! TO.C,Q1*
X259767619Y-63595238D02*
X259720000Y-63690476D01*
X259624761Y-63785714D01*
X259481904Y-63928571D01*
X259434285Y-64023809D01*
X259434285Y-64119047D01*
X259672380Y-64071428D02*
X259624761Y-64166666D01*
X259529523Y-64261904D01*
X259339047Y-64309523D01*
X259005714Y-64309523D01*
X258815238Y-64261904D01*
X258720000Y-64166666D01*
X258672380Y-64071428D01*
X258672380Y-63880952D01*
X258720000Y-63785714D01*
X258815238Y-63690476D01*
X259005714Y-63642857D01*
X259339047Y-63642857D01*
X259529523Y-63690476D01*
X259624761Y-63785714D01*
X259672380Y-63880952D01*
X259672380Y-64071428D01*
X259672380Y-62690476D02*
X259672380Y-63261904D01*
X259672380Y-62976190D02*
X258672380Y-62976190D01*
X258815238Y-63071428D01*
X258910476Y-63166666D01*
X258958095Y-63261904D01*
X264088571Y-65347142D02*
X264136190Y-65204285D01*
X264183809Y-65156666D01*
X264279047Y-65109047D01*
X264421904Y-65109047D01*
X264517142Y-65156666D01*
X264564761Y-65204285D01*
X264612380Y-65299523D01*
X264612380Y-65680476D01*
X263612380Y-65680476D01*
X263612380Y-65347142D01*
X263660000Y-65251904D01*
X263707619Y-65204285D01*
X263802857Y-65156666D01*
X263898095Y-65156666D01*
X263993333Y-65204285D01*
X264040952Y-65251904D01*
X264088571Y-65347142D01*
X264088571Y-65680476D01*
X264517142Y-64109047D02*
X264564761Y-64156666D01*
X264612380Y-64299523D01*
X264612380Y-64394761D01*
X264564761Y-64537619D01*
X264469523Y-64632857D01*
X264374285Y-64680476D01*
X264183809Y-64728095D01*
X264040952Y-64728095D01*
X263850476Y-64680476D01*
X263755238Y-64632857D01*
X263660000Y-64537619D01*
X263612380Y-64394761D01*
X263612380Y-64299523D01*
X263660000Y-64156666D01*
X263707619Y-64109047D01*
X264040952Y-63537619D02*
X263993333Y-63632857D01*
X263945714Y-63680476D01*
X263850476Y-63728095D01*
X263802857Y-63728095D01*
X263707619Y-63680476D01*
X263660000Y-63632857D01*
X263612380Y-63537619D01*
X263612380Y-63347142D01*
X263660000Y-63251904D01*
X263707619Y-63204285D01*
X263802857Y-63156666D01*
X263850476Y-63156666D01*
X263945714Y-63204285D01*
X263993333Y-63251904D01*
X264040952Y-63347142D01*
X264040952Y-63537619D01*
X264088571Y-63632857D01*
X264136190Y-63680476D01*
X264231428Y-63728095D01*
X264421904Y-63728095D01*
X264517142Y-63680476D01*
X264564761Y-63632857D01*
X264612380Y-63537619D01*
X264612380Y-63347142D01*
X264564761Y-63251904D01*
X264517142Y-63204285D01*
X264421904Y-63156666D01*
X264231428Y-63156666D01*
X264136190Y-63204285D01*
X264088571Y-63251904D01*
X264040952Y-63347142D01*
X264612380Y-62204285D02*
X264612380Y-62775714D01*
X264612380Y-62490000D02*
X263612380Y-62490000D01*
X263755238Y-62585238D01*
X263850476Y-62680476D01*
X263898095Y-62775714D01*
X263612380Y-61870952D02*
X263612380Y-61204285D01*
X264612380Y-61632857D01*
G04 #@! TO.C,Q3*
X259767619Y-73755238D02*
X259720000Y-73850476D01*
X259624761Y-73945714D01*
X259481904Y-74088571D01*
X259434285Y-74183809D01*
X259434285Y-74279047D01*
X259672380Y-74231428D02*
X259624761Y-74326666D01*
X259529523Y-74421904D01*
X259339047Y-74469523D01*
X259005714Y-74469523D01*
X258815238Y-74421904D01*
X258720000Y-74326666D01*
X258672380Y-74231428D01*
X258672380Y-74040952D01*
X258720000Y-73945714D01*
X258815238Y-73850476D01*
X259005714Y-73802857D01*
X259339047Y-73802857D01*
X259529523Y-73850476D01*
X259624761Y-73945714D01*
X259672380Y-74040952D01*
X259672380Y-74231428D01*
X258672380Y-73469523D02*
X258672380Y-72850476D01*
X259053333Y-73183809D01*
X259053333Y-73040952D01*
X259100952Y-72945714D01*
X259148571Y-72898095D01*
X259243809Y-72850476D01*
X259481904Y-72850476D01*
X259577142Y-72898095D01*
X259624761Y-72945714D01*
X259672380Y-73040952D01*
X259672380Y-73326666D01*
X259624761Y-73421904D01*
X259577142Y-73469523D01*
X263948571Y-75517142D02*
X263996190Y-75374285D01*
X264043809Y-75326666D01*
X264139047Y-75279047D01*
X264281904Y-75279047D01*
X264377142Y-75326666D01*
X264424761Y-75374285D01*
X264472380Y-75469523D01*
X264472380Y-75850476D01*
X263472380Y-75850476D01*
X263472380Y-75517142D01*
X263520000Y-75421904D01*
X263567619Y-75374285D01*
X263662857Y-75326666D01*
X263758095Y-75326666D01*
X263853333Y-75374285D01*
X263900952Y-75421904D01*
X263948571Y-75517142D01*
X263948571Y-75850476D01*
X264377142Y-74279047D02*
X264424761Y-74326666D01*
X264472380Y-74469523D01*
X264472380Y-74564761D01*
X264424761Y-74707619D01*
X264329523Y-74802857D01*
X264234285Y-74850476D01*
X264043809Y-74898095D01*
X263900952Y-74898095D01*
X263710476Y-74850476D01*
X263615238Y-74802857D01*
X263520000Y-74707619D01*
X263472380Y-74564761D01*
X263472380Y-74469523D01*
X263520000Y-74326666D01*
X263567619Y-74279047D01*
X263900952Y-73707619D02*
X263853333Y-73802857D01*
X263805714Y-73850476D01*
X263710476Y-73898095D01*
X263662857Y-73898095D01*
X263567619Y-73850476D01*
X263520000Y-73802857D01*
X263472380Y-73707619D01*
X263472380Y-73517142D01*
X263520000Y-73421904D01*
X263567619Y-73374285D01*
X263662857Y-73326666D01*
X263710476Y-73326666D01*
X263805714Y-73374285D01*
X263853333Y-73421904D01*
X263900952Y-73517142D01*
X263900952Y-73707619D01*
X263948571Y-73802857D01*
X263996190Y-73850476D01*
X264091428Y-73898095D01*
X264281904Y-73898095D01*
X264377142Y-73850476D01*
X264424761Y-73802857D01*
X264472380Y-73707619D01*
X264472380Y-73517142D01*
X264424761Y-73421904D01*
X264377142Y-73374285D01*
X264281904Y-73326666D01*
X264091428Y-73326666D01*
X263996190Y-73374285D01*
X263948571Y-73421904D01*
X263900952Y-73517142D01*
X264472380Y-72374285D02*
X264472380Y-72945714D01*
X264472380Y-72660000D02*
X263472380Y-72660000D01*
X263615238Y-72755238D01*
X263710476Y-72850476D01*
X263758095Y-72945714D01*
X263472380Y-72040952D02*
X263472380Y-71374285D01*
X264472380Y-71802857D01*
G04 #@! TO.C,R5*
X241133333Y-83892380D02*
X240800000Y-83416190D01*
X240561904Y-83892380D02*
X240561904Y-82892380D01*
X240942857Y-82892380D01*
X241038095Y-82940000D01*
X241085714Y-82987619D01*
X241133333Y-83082857D01*
X241133333Y-83225714D01*
X241085714Y-83320952D01*
X241038095Y-83368571D01*
X240942857Y-83416190D01*
X240561904Y-83416190D01*
X242038095Y-82892380D02*
X241561904Y-82892380D01*
X241514285Y-83368571D01*
X241561904Y-83320952D01*
X241657142Y-83273333D01*
X241895238Y-83273333D01*
X241990476Y-83320952D01*
X242038095Y-83368571D01*
X242085714Y-83463809D01*
X242085714Y-83701904D01*
X242038095Y-83797142D01*
X241990476Y-83844761D01*
X241895238Y-83892380D01*
X241657142Y-83892380D01*
X241561904Y-83844761D01*
X241514285Y-83797142D01*
X241085714Y-87192380D02*
X240514285Y-87192380D01*
X240800000Y-87192380D02*
X240800000Y-86192380D01*
X240704761Y-86335238D01*
X240609523Y-86430476D01*
X240514285Y-86478095D01*
X241514285Y-87192380D02*
X241514285Y-86192380D01*
X242085714Y-87192380D02*
X241657142Y-86620952D01*
X242085714Y-86192380D02*
X241514285Y-86763809D01*
G04 #@! TO.C,H4*
X171323095Y-73172380D02*
X171323095Y-72172380D01*
X171323095Y-72648571D02*
X171894523Y-72648571D01*
X171894523Y-73172380D02*
X171894523Y-72172380D01*
X172799285Y-72505714D02*
X172799285Y-73172380D01*
X172561190Y-72124761D02*
X172323095Y-72839047D01*
X172942142Y-72839047D01*
G04 #@! TO.C,U3*
X230652380Y-107289404D02*
X231461904Y-107289404D01*
X231557142Y-107241785D01*
X231604761Y-107194166D01*
X231652380Y-107098928D01*
X231652380Y-106908452D01*
X231604761Y-106813214D01*
X231557142Y-106765595D01*
X231461904Y-106717976D01*
X230652380Y-106717976D01*
X230652380Y-106337023D02*
X230652380Y-105717976D01*
X231033333Y-106051309D01*
X231033333Y-105908452D01*
X231080952Y-105813214D01*
X231128571Y-105765595D01*
X231223809Y-105717976D01*
X231461904Y-105717976D01*
X231557142Y-105765595D01*
X231604761Y-105813214D01*
X231652380Y-105908452D01*
X231652380Y-106194166D01*
X231604761Y-106289404D01*
X231557142Y-106337023D01*
X236569523Y-110307380D02*
X236569523Y-109307380D01*
X236807619Y-109307380D01*
X236950476Y-109355000D01*
X237045714Y-109450238D01*
X237093333Y-109545476D01*
X237140952Y-109735952D01*
X237140952Y-109878809D01*
X237093333Y-110069285D01*
X237045714Y-110164523D01*
X236950476Y-110259761D01*
X236807619Y-110307380D01*
X236569523Y-110307380D01*
X238093333Y-110307380D02*
X237521904Y-110307380D01*
X237807619Y-110307380D02*
X237807619Y-109307380D01*
X237712380Y-109450238D01*
X237617142Y-109545476D01*
X237521904Y-109593095D01*
X238950476Y-109640714D02*
X238950476Y-110307380D01*
X238712380Y-109259761D02*
X238474285Y-109974047D01*
X239093333Y-109974047D01*
X239617142Y-109735952D02*
X239521904Y-109688333D01*
X239474285Y-109640714D01*
X239426666Y-109545476D01*
X239426666Y-109497857D01*
X239474285Y-109402619D01*
X239521904Y-109355000D01*
X239617142Y-109307380D01*
X239807619Y-109307380D01*
X239902857Y-109355000D01*
X239950476Y-109402619D01*
X239998095Y-109497857D01*
X239998095Y-109545476D01*
X239950476Y-109640714D01*
X239902857Y-109688333D01*
X239807619Y-109735952D01*
X239617142Y-109735952D01*
X239521904Y-109783571D01*
X239474285Y-109831190D01*
X239426666Y-109926428D01*
X239426666Y-110116904D01*
X239474285Y-110212142D01*
X239521904Y-110259761D01*
X239617142Y-110307380D01*
X239807619Y-110307380D01*
X239902857Y-110259761D01*
X239950476Y-110212142D01*
X239998095Y-110116904D01*
X239998095Y-109926428D01*
X239950476Y-109831190D01*
X239902857Y-109783571D01*
X239807619Y-109735952D01*
X240426666Y-110307380D02*
X240426666Y-109307380D01*
X240998095Y-110307380D02*
X240569523Y-109735952D01*
X240998095Y-109307380D02*
X240426666Y-109878809D01*
G04 #@! TO.C,D5*
X180654404Y-100232380D02*
X180654404Y-99232380D01*
X180892500Y-99232380D01*
X181035357Y-99280000D01*
X181130595Y-99375238D01*
X181178214Y-99470476D01*
X181225833Y-99660952D01*
X181225833Y-99803809D01*
X181178214Y-99994285D01*
X181130595Y-100089523D01*
X181035357Y-100184761D01*
X180892500Y-100232380D01*
X180654404Y-100232380D01*
X182130595Y-99232380D02*
X181654404Y-99232380D01*
X181606785Y-99708571D01*
X181654404Y-99660952D01*
X181749642Y-99613333D01*
X181987738Y-99613333D01*
X182082976Y-99660952D01*
X182130595Y-99708571D01*
X182178214Y-99803809D01*
X182178214Y-100041904D01*
X182130595Y-100137142D01*
X182082976Y-100184761D01*
X181987738Y-100232380D01*
X181749642Y-100232380D01*
X181654404Y-100184761D01*
X181606785Y-100137142D01*
X178630595Y-103909761D02*
X178773452Y-103957380D01*
X179011547Y-103957380D01*
X179106785Y-103909761D01*
X179154404Y-103862142D01*
X179202023Y-103766904D01*
X179202023Y-103671666D01*
X179154404Y-103576428D01*
X179106785Y-103528809D01*
X179011547Y-103481190D01*
X178821071Y-103433571D01*
X178725833Y-103385952D01*
X178678214Y-103338333D01*
X178630595Y-103243095D01*
X178630595Y-103147857D01*
X178678214Y-103052619D01*
X178725833Y-103005000D01*
X178821071Y-102957380D01*
X179059166Y-102957380D01*
X179202023Y-103005000D01*
X179630595Y-103957380D02*
X179630595Y-102957380D01*
X179963928Y-103671666D01*
X180297261Y-102957380D01*
X180297261Y-103957380D01*
X181202023Y-103290714D02*
X181202023Y-103957380D01*
X180963928Y-102909761D02*
X180725833Y-103624047D01*
X181344880Y-103624047D01*
X181916309Y-102957380D02*
X182011547Y-102957380D01*
X182106785Y-103005000D01*
X182154404Y-103052619D01*
X182202023Y-103147857D01*
X182249642Y-103338333D01*
X182249642Y-103576428D01*
X182202023Y-103766904D01*
X182154404Y-103862142D01*
X182106785Y-103909761D01*
X182011547Y-103957380D01*
X181916309Y-103957380D01*
X181821071Y-103909761D01*
X181773452Y-103862142D01*
X181725833Y-103766904D01*
X181678214Y-103576428D01*
X181678214Y-103338333D01*
X181725833Y-103147857D01*
X181773452Y-103052619D01*
X181821071Y-103005000D01*
X181916309Y-102957380D01*
X182868690Y-102957380D02*
X182963928Y-102957380D01*
X183059166Y-103005000D01*
X183106785Y-103052619D01*
X183154404Y-103147857D01*
X183202023Y-103338333D01*
X183202023Y-103576428D01*
X183154404Y-103766904D01*
X183106785Y-103862142D01*
X183059166Y-103909761D01*
X182963928Y-103957380D01*
X182868690Y-103957380D01*
X182773452Y-103909761D01*
X182725833Y-103862142D01*
X182678214Y-103766904D01*
X182630595Y-103576428D01*
X182630595Y-103338333D01*
X182678214Y-103147857D01*
X182725833Y-103052619D01*
X182773452Y-103005000D01*
X182868690Y-102957380D01*
X183535357Y-102957380D02*
X184202023Y-102957380D01*
X183773452Y-103957380D01*
G04 #@! TO.C,D7*
X174664404Y-100147380D02*
X174664404Y-99147380D01*
X174902500Y-99147380D01*
X175045357Y-99195000D01*
X175140595Y-99290238D01*
X175188214Y-99385476D01*
X175235833Y-99575952D01*
X175235833Y-99718809D01*
X175188214Y-99909285D01*
X175140595Y-100004523D01*
X175045357Y-100099761D01*
X174902500Y-100147380D01*
X174664404Y-100147380D01*
X175569166Y-99147380D02*
X176235833Y-99147380D01*
X175807261Y-100147380D01*
X171863095Y-103909761D02*
X172005952Y-103957380D01*
X172244047Y-103957380D01*
X172339285Y-103909761D01*
X172386904Y-103862142D01*
X172434523Y-103766904D01*
X172434523Y-103671666D01*
X172386904Y-103576428D01*
X172339285Y-103528809D01*
X172244047Y-103481190D01*
X172053571Y-103433571D01*
X171958333Y-103385952D01*
X171910714Y-103338333D01*
X171863095Y-103243095D01*
X171863095Y-103147857D01*
X171910714Y-103052619D01*
X171958333Y-103005000D01*
X172053571Y-102957380D01*
X172291666Y-102957380D01*
X172434523Y-103005000D01*
X172863095Y-103957380D02*
X172863095Y-102957380D01*
X173196428Y-103671666D01*
X173529761Y-102957380D01*
X173529761Y-103957380D01*
X174434523Y-103290714D02*
X174434523Y-103957380D01*
X174196428Y-102909761D02*
X173958333Y-103624047D01*
X174577380Y-103624047D01*
X175148809Y-102957380D02*
X175244047Y-102957380D01*
X175339285Y-103005000D01*
X175386904Y-103052619D01*
X175434523Y-103147857D01*
X175482142Y-103338333D01*
X175482142Y-103576428D01*
X175434523Y-103766904D01*
X175386904Y-103862142D01*
X175339285Y-103909761D01*
X175244047Y-103957380D01*
X175148809Y-103957380D01*
X175053571Y-103909761D01*
X175005952Y-103862142D01*
X174958333Y-103766904D01*
X174910714Y-103576428D01*
X174910714Y-103338333D01*
X174958333Y-103147857D01*
X175005952Y-103052619D01*
X175053571Y-103005000D01*
X175148809Y-102957380D01*
X176101190Y-102957380D02*
X176196428Y-102957380D01*
X176291666Y-103005000D01*
X176339285Y-103052619D01*
X176386904Y-103147857D01*
X176434523Y-103338333D01*
X176434523Y-103576428D01*
X176386904Y-103766904D01*
X176339285Y-103862142D01*
X176291666Y-103909761D01*
X176196428Y-103957380D01*
X176101190Y-103957380D01*
X176005952Y-103909761D01*
X175958333Y-103862142D01*
X175910714Y-103766904D01*
X175863095Y-103576428D01*
X175863095Y-103338333D01*
X175910714Y-103147857D01*
X175958333Y-103052619D01*
X176005952Y-103005000D01*
X176101190Y-102957380D01*
X176767857Y-102957380D02*
X177434523Y-102957380D01*
X177005952Y-103957380D01*
G04 #@! TO.C,U4*
X245892380Y-107289404D02*
X246701904Y-107289404D01*
X246797142Y-107241785D01*
X246844761Y-107194166D01*
X246892380Y-107098928D01*
X246892380Y-106908452D01*
X246844761Y-106813214D01*
X246797142Y-106765595D01*
X246701904Y-106717976D01*
X245892380Y-106717976D01*
X246225714Y-105813214D02*
X246892380Y-105813214D01*
X245844761Y-106051309D02*
X246559047Y-106289404D01*
X246559047Y-105670357D01*
X251809523Y-110307380D02*
X251809523Y-109307380D01*
X252047619Y-109307380D01*
X252190476Y-109355000D01*
X252285714Y-109450238D01*
X252333333Y-109545476D01*
X252380952Y-109735952D01*
X252380952Y-109878809D01*
X252333333Y-110069285D01*
X252285714Y-110164523D01*
X252190476Y-110259761D01*
X252047619Y-110307380D01*
X251809523Y-110307380D01*
X253333333Y-110307380D02*
X252761904Y-110307380D01*
X253047619Y-110307380D02*
X253047619Y-109307380D01*
X252952380Y-109450238D01*
X252857142Y-109545476D01*
X252761904Y-109593095D01*
X254190476Y-109640714D02*
X254190476Y-110307380D01*
X253952380Y-109259761D02*
X253714285Y-109974047D01*
X254333333Y-109974047D01*
X254857142Y-109735952D02*
X254761904Y-109688333D01*
X254714285Y-109640714D01*
X254666666Y-109545476D01*
X254666666Y-109497857D01*
X254714285Y-109402619D01*
X254761904Y-109355000D01*
X254857142Y-109307380D01*
X255047619Y-109307380D01*
X255142857Y-109355000D01*
X255190476Y-109402619D01*
X255238095Y-109497857D01*
X255238095Y-109545476D01*
X255190476Y-109640714D01*
X255142857Y-109688333D01*
X255047619Y-109735952D01*
X254857142Y-109735952D01*
X254761904Y-109783571D01*
X254714285Y-109831190D01*
X254666666Y-109926428D01*
X254666666Y-110116904D01*
X254714285Y-110212142D01*
X254761904Y-110259761D01*
X254857142Y-110307380D01*
X255047619Y-110307380D01*
X255142857Y-110259761D01*
X255190476Y-110212142D01*
X255238095Y-110116904D01*
X255238095Y-109926428D01*
X255190476Y-109831190D01*
X255142857Y-109783571D01*
X255047619Y-109735952D01*
X255666666Y-110307380D02*
X255666666Y-109307380D01*
X256238095Y-110307380D02*
X255809523Y-109735952D01*
X256238095Y-109307380D02*
X255666666Y-109878809D01*
G04 #@! TO.C,D4*
X260422380Y-54078095D02*
X259422380Y-54078095D01*
X259422380Y-53840000D01*
X259470000Y-53697142D01*
X259565238Y-53601904D01*
X259660476Y-53554285D01*
X259850952Y-53506666D01*
X259993809Y-53506666D01*
X260184285Y-53554285D01*
X260279523Y-53601904D01*
X260374761Y-53697142D01*
X260422380Y-53840000D01*
X260422380Y-54078095D01*
X259755714Y-52649523D02*
X260422380Y-52649523D01*
X259374761Y-52887619D02*
X260089047Y-53125714D01*
X260089047Y-52506666D01*
X263722380Y-54840000D02*
X263722380Y-55316190D01*
X262722380Y-55316190D01*
X263198571Y-54506666D02*
X263198571Y-54173333D01*
X263722380Y-54030476D02*
X263722380Y-54506666D01*
X262722380Y-54506666D01*
X262722380Y-54030476D01*
X263722380Y-53601904D02*
X262722380Y-53601904D01*
X262722380Y-53363809D01*
X262770000Y-53220952D01*
X262865238Y-53125714D01*
X262960476Y-53078095D01*
X263150952Y-53030476D01*
X263293809Y-53030476D01*
X263484285Y-53078095D01*
X263579523Y-53125714D01*
X263674761Y-53220952D01*
X263722380Y-53363809D01*
X263722380Y-53601904D01*
X263817619Y-52840000D02*
X263817619Y-52078095D01*
X262722380Y-51935238D02*
X262722380Y-51316190D01*
X263103333Y-51649523D01*
X263103333Y-51506666D01*
X263150952Y-51411428D01*
X263198571Y-51363809D01*
X263293809Y-51316190D01*
X263531904Y-51316190D01*
X263627142Y-51363809D01*
X263674761Y-51411428D01*
X263722380Y-51506666D01*
X263722380Y-51792380D01*
X263674761Y-51887619D01*
X263627142Y-51935238D01*
G04 #@! TO.C,H2*
X262763095Y-124277380D02*
X262763095Y-123277380D01*
X262763095Y-123753571D02*
X263334523Y-123753571D01*
X263334523Y-124277380D02*
X263334523Y-123277380D01*
X263763095Y-123372619D02*
X263810714Y-123325000D01*
X263905952Y-123277380D01*
X264144047Y-123277380D01*
X264239285Y-123325000D01*
X264286904Y-123372619D01*
X264334523Y-123467857D01*
X264334523Y-123563095D01*
X264286904Y-123705952D01*
X263715476Y-124277380D01*
X264334523Y-124277380D01*
G04 #@! TO.C,SW1*
X173124761Y-87693333D02*
X173172380Y-87550476D01*
X173172380Y-87312380D01*
X173124761Y-87217142D01*
X173077142Y-87169523D01*
X172981904Y-87121904D01*
X172886666Y-87121904D01*
X172791428Y-87169523D01*
X172743809Y-87217142D01*
X172696190Y-87312380D01*
X172648571Y-87502857D01*
X172600952Y-87598095D01*
X172553333Y-87645714D01*
X172458095Y-87693333D01*
X172362857Y-87693333D01*
X172267619Y-87645714D01*
X172220000Y-87598095D01*
X172172380Y-87502857D01*
X172172380Y-87264761D01*
X172220000Y-87121904D01*
X172172380Y-86788571D02*
X173172380Y-86550476D01*
X172458095Y-86360000D01*
X173172380Y-86169523D01*
X172172380Y-85931428D01*
X173172380Y-85026666D02*
X173172380Y-85598095D01*
X173172380Y-85312380D02*
X172172380Y-85312380D01*
X172315238Y-85407619D01*
X172410476Y-85502857D01*
X172458095Y-85598095D01*
X176538095Y-82314761D02*
X176680952Y-82362380D01*
X176919047Y-82362380D01*
X177014285Y-82314761D01*
X177061904Y-82267142D01*
X177109523Y-82171904D01*
X177109523Y-82076666D01*
X177061904Y-81981428D01*
X177014285Y-81933809D01*
X176919047Y-81886190D01*
X176728571Y-81838571D01*
X176633333Y-81790952D01*
X176585714Y-81743333D01*
X176538095Y-81648095D01*
X176538095Y-81552857D01*
X176585714Y-81457619D01*
X176633333Y-81410000D01*
X176728571Y-81362380D01*
X176966666Y-81362380D01*
X177109523Y-81410000D01*
X177728571Y-81362380D02*
X177823809Y-81362380D01*
X177919047Y-81410000D01*
X177966666Y-81457619D01*
X178014285Y-81552857D01*
X178061904Y-81743333D01*
X178061904Y-81981428D01*
X178014285Y-82171904D01*
X177966666Y-82267142D01*
X177919047Y-82314761D01*
X177823809Y-82362380D01*
X177728571Y-82362380D01*
X177633333Y-82314761D01*
X177585714Y-82267142D01*
X177538095Y-82171904D01*
X177490476Y-81981428D01*
X177490476Y-81743333D01*
X177538095Y-81552857D01*
X177585714Y-81457619D01*
X177633333Y-81410000D01*
X177728571Y-81362380D01*
G04 #@! TO.C,R4*
X256103333Y-83892380D02*
X255770000Y-83416190D01*
X255531904Y-83892380D02*
X255531904Y-82892380D01*
X255912857Y-82892380D01*
X256008095Y-82940000D01*
X256055714Y-82987619D01*
X256103333Y-83082857D01*
X256103333Y-83225714D01*
X256055714Y-83320952D01*
X256008095Y-83368571D01*
X255912857Y-83416190D01*
X255531904Y-83416190D01*
X256960476Y-83225714D02*
X256960476Y-83892380D01*
X256722380Y-82844761D02*
X256484285Y-83559047D01*
X257103333Y-83559047D01*
X256055714Y-87192380D02*
X255484285Y-87192380D01*
X255770000Y-87192380D02*
X255770000Y-86192380D01*
X255674761Y-86335238D01*
X255579523Y-86430476D01*
X255484285Y-86478095D01*
X256484285Y-87192380D02*
X256484285Y-86192380D01*
X257055714Y-87192380D02*
X256627142Y-86620952D01*
X257055714Y-86192380D02*
X256484285Y-86763809D01*
G04 #@! TO.C,SW3*
X183919761Y-87693333D02*
X183967380Y-87550476D01*
X183967380Y-87312380D01*
X183919761Y-87217142D01*
X183872142Y-87169523D01*
X183776904Y-87121904D01*
X183681666Y-87121904D01*
X183586428Y-87169523D01*
X183538809Y-87217142D01*
X183491190Y-87312380D01*
X183443571Y-87502857D01*
X183395952Y-87598095D01*
X183348333Y-87645714D01*
X183253095Y-87693333D01*
X183157857Y-87693333D01*
X183062619Y-87645714D01*
X183015000Y-87598095D01*
X182967380Y-87502857D01*
X182967380Y-87264761D01*
X183015000Y-87121904D01*
X182967380Y-86788571D02*
X183967380Y-86550476D01*
X183253095Y-86360000D01*
X183967380Y-86169523D01*
X182967380Y-85931428D01*
X182967380Y-85645714D02*
X182967380Y-85026666D01*
X183348333Y-85360000D01*
X183348333Y-85217142D01*
X183395952Y-85121904D01*
X183443571Y-85074285D01*
X183538809Y-85026666D01*
X183776904Y-85026666D01*
X183872142Y-85074285D01*
X183919761Y-85121904D01*
X183967380Y-85217142D01*
X183967380Y-85502857D01*
X183919761Y-85598095D01*
X183872142Y-85645714D01*
X187408095Y-82314761D02*
X187550952Y-82362380D01*
X187789047Y-82362380D01*
X187884285Y-82314761D01*
X187931904Y-82267142D01*
X187979523Y-82171904D01*
X187979523Y-82076666D01*
X187931904Y-81981428D01*
X187884285Y-81933809D01*
X187789047Y-81886190D01*
X187598571Y-81838571D01*
X187503333Y-81790952D01*
X187455714Y-81743333D01*
X187408095Y-81648095D01*
X187408095Y-81552857D01*
X187455714Y-81457619D01*
X187503333Y-81410000D01*
X187598571Y-81362380D01*
X187836666Y-81362380D01*
X187979523Y-81410000D01*
X188360476Y-81457619D02*
X188408095Y-81410000D01*
X188503333Y-81362380D01*
X188741428Y-81362380D01*
X188836666Y-81410000D01*
X188884285Y-81457619D01*
X188931904Y-81552857D01*
X188931904Y-81648095D01*
X188884285Y-81790952D01*
X188312857Y-82362380D01*
X188931904Y-82362380D01*
G04 #@! TO.C,U2*
X215412380Y-107289404D02*
X216221904Y-107289404D01*
X216317142Y-107241785D01*
X216364761Y-107194166D01*
X216412380Y-107098928D01*
X216412380Y-106908452D01*
X216364761Y-106813214D01*
X216317142Y-106765595D01*
X216221904Y-106717976D01*
X215412380Y-106717976D01*
X215507619Y-106289404D02*
X215460000Y-106241785D01*
X215412380Y-106146547D01*
X215412380Y-105908452D01*
X215460000Y-105813214D01*
X215507619Y-105765595D01*
X215602857Y-105717976D01*
X215698095Y-105717976D01*
X215840952Y-105765595D01*
X216412380Y-106337023D01*
X216412380Y-105717976D01*
X221329523Y-110307380D02*
X221329523Y-109307380D01*
X221567619Y-109307380D01*
X221710476Y-109355000D01*
X221805714Y-109450238D01*
X221853333Y-109545476D01*
X221900952Y-109735952D01*
X221900952Y-109878809D01*
X221853333Y-110069285D01*
X221805714Y-110164523D01*
X221710476Y-110259761D01*
X221567619Y-110307380D01*
X221329523Y-110307380D01*
X222853333Y-110307380D02*
X222281904Y-110307380D01*
X222567619Y-110307380D02*
X222567619Y-109307380D01*
X222472380Y-109450238D01*
X222377142Y-109545476D01*
X222281904Y-109593095D01*
X223710476Y-109640714D02*
X223710476Y-110307380D01*
X223472380Y-109259761D02*
X223234285Y-109974047D01*
X223853333Y-109974047D01*
X224377142Y-109735952D02*
X224281904Y-109688333D01*
X224234285Y-109640714D01*
X224186666Y-109545476D01*
X224186666Y-109497857D01*
X224234285Y-109402619D01*
X224281904Y-109355000D01*
X224377142Y-109307380D01*
X224567619Y-109307380D01*
X224662857Y-109355000D01*
X224710476Y-109402619D01*
X224758095Y-109497857D01*
X224758095Y-109545476D01*
X224710476Y-109640714D01*
X224662857Y-109688333D01*
X224567619Y-109735952D01*
X224377142Y-109735952D01*
X224281904Y-109783571D01*
X224234285Y-109831190D01*
X224186666Y-109926428D01*
X224186666Y-110116904D01*
X224234285Y-110212142D01*
X224281904Y-110259761D01*
X224377142Y-110307380D01*
X224567619Y-110307380D01*
X224662857Y-110259761D01*
X224710476Y-110212142D01*
X224758095Y-110116904D01*
X224758095Y-109926428D01*
X224710476Y-109831190D01*
X224662857Y-109783571D01*
X224567619Y-109735952D01*
X225186666Y-110307380D02*
X225186666Y-109307380D01*
X225758095Y-110307380D02*
X225329523Y-109735952D01*
X225758095Y-109307380D02*
X225186666Y-109878809D01*
G04 #@! TO.C,U1*
X176042380Y-76174404D02*
X176851904Y-76174404D01*
X176947142Y-76126785D01*
X176994761Y-76079166D01*
X177042380Y-75983928D01*
X177042380Y-75793452D01*
X176994761Y-75698214D01*
X176947142Y-75650595D01*
X176851904Y-75602976D01*
X176042380Y-75602976D01*
X177042380Y-74602976D02*
X177042380Y-75174404D01*
X177042380Y-74888690D02*
X176042380Y-74888690D01*
X176185238Y-74983928D01*
X176280476Y-75079166D01*
X176328095Y-75174404D01*
X206089523Y-110307380D02*
X206089523Y-109307380D01*
X206327619Y-109307380D01*
X206470476Y-109355000D01*
X206565714Y-109450238D01*
X206613333Y-109545476D01*
X206660952Y-109735952D01*
X206660952Y-109878809D01*
X206613333Y-110069285D01*
X206565714Y-110164523D01*
X206470476Y-110259761D01*
X206327619Y-110307380D01*
X206089523Y-110307380D01*
X207613333Y-110307380D02*
X207041904Y-110307380D01*
X207327619Y-110307380D02*
X207327619Y-109307380D01*
X207232380Y-109450238D01*
X207137142Y-109545476D01*
X207041904Y-109593095D01*
X208470476Y-109640714D02*
X208470476Y-110307380D01*
X208232380Y-109259761D02*
X207994285Y-109974047D01*
X208613333Y-109974047D01*
X209137142Y-109735952D02*
X209041904Y-109688333D01*
X208994285Y-109640714D01*
X208946666Y-109545476D01*
X208946666Y-109497857D01*
X208994285Y-109402619D01*
X209041904Y-109355000D01*
X209137142Y-109307380D01*
X209327619Y-109307380D01*
X209422857Y-109355000D01*
X209470476Y-109402619D01*
X209518095Y-109497857D01*
X209518095Y-109545476D01*
X209470476Y-109640714D01*
X209422857Y-109688333D01*
X209327619Y-109735952D01*
X209137142Y-109735952D01*
X209041904Y-109783571D01*
X208994285Y-109831190D01*
X208946666Y-109926428D01*
X208946666Y-110116904D01*
X208994285Y-110212142D01*
X209041904Y-110259761D01*
X209137142Y-110307380D01*
X209327619Y-110307380D01*
X209422857Y-110259761D01*
X209470476Y-110212142D01*
X209518095Y-110116904D01*
X209518095Y-109926428D01*
X209470476Y-109831190D01*
X209422857Y-109783571D01*
X209327619Y-109735952D01*
X209946666Y-110307380D02*
X209946666Y-109307380D01*
X210518095Y-110307380D02*
X210089523Y-109735952D01*
X210518095Y-109307380D02*
X209946666Y-109878809D01*
G04 #@! TO.C,BT1*
X196064285Y-122338571D02*
X196207142Y-122386190D01*
X196254761Y-122433809D01*
X196302380Y-122529047D01*
X196302380Y-122671904D01*
X196254761Y-122767142D01*
X196207142Y-122814761D01*
X196111904Y-122862380D01*
X195730952Y-122862380D01*
X195730952Y-121862380D01*
X196064285Y-121862380D01*
X196159523Y-121910000D01*
X196207142Y-121957619D01*
X196254761Y-122052857D01*
X196254761Y-122148095D01*
X196207142Y-122243333D01*
X196159523Y-122290952D01*
X196064285Y-122338571D01*
X195730952Y-122338571D01*
X196588095Y-121862380D02*
X197159523Y-121862380D01*
X196873809Y-122862380D02*
X196873809Y-121862380D01*
X198016666Y-122862380D02*
X197445238Y-122862380D01*
X197730952Y-122862380D02*
X197730952Y-121862380D01*
X197635714Y-122005238D01*
X197540476Y-122100476D01*
X197445238Y-122148095D01*
X179514761Y-105767142D02*
X179467142Y-105814761D01*
X179324285Y-105862380D01*
X179229047Y-105862380D01*
X179086190Y-105814761D01*
X178990952Y-105719523D01*
X178943333Y-105624285D01*
X178895714Y-105433809D01*
X178895714Y-105290952D01*
X178943333Y-105100476D01*
X178990952Y-105005238D01*
X179086190Y-104910000D01*
X179229047Y-104862380D01*
X179324285Y-104862380D01*
X179467142Y-104910000D01*
X179514761Y-104957619D01*
X180514761Y-105862380D02*
X180181428Y-105386190D01*
X179943333Y-105862380D02*
X179943333Y-104862380D01*
X180324285Y-104862380D01*
X180419523Y-104910000D01*
X180467142Y-104957619D01*
X180514761Y-105052857D01*
X180514761Y-105195714D01*
X180467142Y-105290952D01*
X180419523Y-105338571D01*
X180324285Y-105386190D01*
X179943333Y-105386190D01*
X180895714Y-104957619D02*
X180943333Y-104910000D01*
X181038571Y-104862380D01*
X181276666Y-104862380D01*
X181371904Y-104910000D01*
X181419523Y-104957619D01*
X181467142Y-105052857D01*
X181467142Y-105148095D01*
X181419523Y-105290952D01*
X180848095Y-105862380D01*
X181467142Y-105862380D01*
X182086190Y-104862380D02*
X182181428Y-104862380D01*
X182276666Y-104910000D01*
X182324285Y-104957619D01*
X182371904Y-105052857D01*
X182419523Y-105243333D01*
X182419523Y-105481428D01*
X182371904Y-105671904D01*
X182324285Y-105767142D01*
X182276666Y-105814761D01*
X182181428Y-105862380D01*
X182086190Y-105862380D01*
X181990952Y-105814761D01*
X181943333Y-105767142D01*
X181895714Y-105671904D01*
X181848095Y-105481428D01*
X181848095Y-105243333D01*
X181895714Y-105052857D01*
X181943333Y-104957619D01*
X181990952Y-104910000D01*
X182086190Y-104862380D01*
X182752857Y-104862380D02*
X183371904Y-104862380D01*
X183038571Y-105243333D01*
X183181428Y-105243333D01*
X183276666Y-105290952D01*
X183324285Y-105338571D01*
X183371904Y-105433809D01*
X183371904Y-105671904D01*
X183324285Y-105767142D01*
X183276666Y-105814761D01*
X183181428Y-105862380D01*
X182895714Y-105862380D01*
X182800476Y-105814761D01*
X182752857Y-105767142D01*
X183752857Y-104957619D02*
X183800476Y-104910000D01*
X183895714Y-104862380D01*
X184133809Y-104862380D01*
X184229047Y-104910000D01*
X184276666Y-104957619D01*
X184324285Y-105052857D01*
X184324285Y-105148095D01*
X184276666Y-105290952D01*
X183705238Y-105862380D01*
X184324285Y-105862380D01*
X193528571Y-118217142D02*
X194671428Y-118217142D01*
X194100000Y-118788571D02*
X194100000Y-117645714D01*
G04 #@! TO.C,U5*
X199062380Y-122661904D02*
X199871904Y-122661904D01*
X199967142Y-122614285D01*
X200014761Y-122566666D01*
X200062380Y-122471428D01*
X200062380Y-122280952D01*
X200014761Y-122185714D01*
X199967142Y-122138095D01*
X199871904Y-122090476D01*
X199062380Y-122090476D01*
X199062380Y-121138095D02*
X199062380Y-121614285D01*
X199538571Y-121661904D01*
X199490952Y-121614285D01*
X199443333Y-121519047D01*
X199443333Y-121280952D01*
X199490952Y-121185714D01*
X199538571Y-121138095D01*
X199633809Y-121090476D01*
X199871904Y-121090476D01*
X199967142Y-121138095D01*
X200014761Y-121185714D01*
X200062380Y-121280952D01*
X200062380Y-121519047D01*
X200014761Y-121614285D01*
X199967142Y-121661904D01*
G04 #@! TO.C,D2*
X260422380Y-43918095D02*
X259422380Y-43918095D01*
X259422380Y-43680000D01*
X259470000Y-43537142D01*
X259565238Y-43441904D01*
X259660476Y-43394285D01*
X259850952Y-43346666D01*
X259993809Y-43346666D01*
X260184285Y-43394285D01*
X260279523Y-43441904D01*
X260374761Y-43537142D01*
X260422380Y-43680000D01*
X260422380Y-43918095D01*
X259517619Y-42965714D02*
X259470000Y-42918095D01*
X259422380Y-42822857D01*
X259422380Y-42584761D01*
X259470000Y-42489523D01*
X259517619Y-42441904D01*
X259612857Y-42394285D01*
X259708095Y-42394285D01*
X259850952Y-42441904D01*
X260422380Y-43013333D01*
X260422380Y-42394285D01*
X263722380Y-44680000D02*
X263722380Y-45156190D01*
X262722380Y-45156190D01*
X263198571Y-44346666D02*
X263198571Y-44013333D01*
X263722380Y-43870476D02*
X263722380Y-44346666D01*
X262722380Y-44346666D01*
X262722380Y-43870476D01*
X263722380Y-43441904D02*
X262722380Y-43441904D01*
X262722380Y-43203809D01*
X262770000Y-43060952D01*
X262865238Y-42965714D01*
X262960476Y-42918095D01*
X263150952Y-42870476D01*
X263293809Y-42870476D01*
X263484285Y-42918095D01*
X263579523Y-42965714D01*
X263674761Y-43060952D01*
X263722380Y-43203809D01*
X263722380Y-43441904D01*
X263817619Y-42680000D02*
X263817619Y-41918095D01*
X263722380Y-41156190D02*
X263722380Y-41727619D01*
X263722380Y-41441904D02*
X262722380Y-41441904D01*
X262865238Y-41537142D01*
X262960476Y-41632380D01*
X263008095Y-41727619D01*
G04 #@! TO.C,H1*
X194183095Y-123972380D02*
X194183095Y-122972380D01*
X194183095Y-123448571D02*
X194754523Y-123448571D01*
X194754523Y-123972380D02*
X194754523Y-122972380D01*
X195754523Y-123972380D02*
X195183095Y-123972380D01*
X195468809Y-123972380D02*
X195468809Y-122972380D01*
X195373571Y-123115238D01*
X195278333Y-123210476D01*
X195183095Y-123258095D01*
G04 #@! TO.C,SW4*
X183919761Y-96293333D02*
X183967380Y-96150476D01*
X183967380Y-95912380D01*
X183919761Y-95817142D01*
X183872142Y-95769523D01*
X183776904Y-95721904D01*
X183681666Y-95721904D01*
X183586428Y-95769523D01*
X183538809Y-95817142D01*
X183491190Y-95912380D01*
X183443571Y-96102857D01*
X183395952Y-96198095D01*
X183348333Y-96245714D01*
X183253095Y-96293333D01*
X183157857Y-96293333D01*
X183062619Y-96245714D01*
X183015000Y-96198095D01*
X182967380Y-96102857D01*
X182967380Y-95864761D01*
X183015000Y-95721904D01*
X182967380Y-95388571D02*
X183967380Y-95150476D01*
X183253095Y-94960000D01*
X183967380Y-94769523D01*
X182967380Y-94531428D01*
X183300714Y-93721904D02*
X183967380Y-93721904D01*
X182919761Y-93960000D02*
X183634047Y-94198095D01*
X183634047Y-93579047D01*
X187833095Y-90914761D02*
X187975952Y-90962380D01*
X188214047Y-90962380D01*
X188309285Y-90914761D01*
X188356904Y-90867142D01*
X188404523Y-90771904D01*
X188404523Y-90676666D01*
X188356904Y-90581428D01*
X188309285Y-90533809D01*
X188214047Y-90486190D01*
X188023571Y-90438571D01*
X187928333Y-90390952D01*
X187880714Y-90343333D01*
X187833095Y-90248095D01*
X187833095Y-90152857D01*
X187880714Y-90057619D01*
X187928333Y-90010000D01*
X188023571Y-89962380D01*
X188261666Y-89962380D01*
X188404523Y-90010000D01*
X188737857Y-89962380D02*
X189356904Y-89962380D01*
X189023571Y-90343333D01*
X189166428Y-90343333D01*
X189261666Y-90390952D01*
X189309285Y-90438571D01*
X189356904Y-90533809D01*
X189356904Y-90771904D01*
X189309285Y-90867142D01*
X189261666Y-90914761D01*
X189166428Y-90962380D01*
X188880714Y-90962380D01*
X188785476Y-90914761D01*
X188737857Y-90867142D01*
G04 #@! TO.C,RV1*
X202382380Y-86955238D02*
X201906190Y-87288571D01*
X202382380Y-87526666D02*
X201382380Y-87526666D01*
X201382380Y-87145714D01*
X201430000Y-87050476D01*
X201477619Y-87002857D01*
X201572857Y-86955238D01*
X201715714Y-86955238D01*
X201810952Y-87002857D01*
X201858571Y-87050476D01*
X201906190Y-87145714D01*
X201906190Y-87526666D01*
X201382380Y-86669523D02*
X202382380Y-86336190D01*
X201382380Y-86002857D01*
X202382380Y-85145714D02*
X202382380Y-85717142D01*
X202382380Y-85431428D02*
X201382380Y-85431428D01*
X201525238Y-85526666D01*
X201620476Y-85621904D01*
X201668095Y-85717142D01*
X197429523Y-82367380D02*
X196858095Y-82367380D01*
X197143809Y-82367380D02*
X197143809Y-81367380D01*
X197048571Y-81510238D01*
X196953333Y-81605476D01*
X196858095Y-81653095D01*
X198048571Y-81367380D02*
X198143809Y-81367380D01*
X198239047Y-81415000D01*
X198286666Y-81462619D01*
X198334285Y-81557857D01*
X198381904Y-81748333D01*
X198381904Y-81986428D01*
X198334285Y-82176904D01*
X198286666Y-82272142D01*
X198239047Y-82319761D01*
X198143809Y-82367380D01*
X198048571Y-82367380D01*
X197953333Y-82319761D01*
X197905714Y-82272142D01*
X197858095Y-82176904D01*
X197810476Y-81986428D01*
X197810476Y-81748333D01*
X197858095Y-81557857D01*
X197905714Y-81462619D01*
X197953333Y-81415000D01*
X198048571Y-81367380D01*
X198810476Y-82367380D02*
X198810476Y-81367380D01*
X199381904Y-82367380D02*
X198953333Y-81795952D01*
X199381904Y-81367380D02*
X198810476Y-81938809D01*
G04 #@! TO.C,DS1*
X215905714Y-82367380D02*
X215905714Y-81367380D01*
X216143809Y-81367380D01*
X216286666Y-81415000D01*
X216381904Y-81510238D01*
X216429523Y-81605476D01*
X216477142Y-81795952D01*
X216477142Y-81938809D01*
X216429523Y-82129285D01*
X216381904Y-82224523D01*
X216286666Y-82319761D01*
X216143809Y-82367380D01*
X215905714Y-82367380D01*
X216858095Y-82319761D02*
X217000952Y-82367380D01*
X217239047Y-82367380D01*
X217334285Y-82319761D01*
X217381904Y-82272142D01*
X217429523Y-82176904D01*
X217429523Y-82081666D01*
X217381904Y-81986428D01*
X217334285Y-81938809D01*
X217239047Y-81891190D01*
X217048571Y-81843571D01*
X216953333Y-81795952D01*
X216905714Y-81748333D01*
X216858095Y-81653095D01*
X216858095Y-81557857D01*
X216905714Y-81462619D01*
X216953333Y-81415000D01*
X217048571Y-81367380D01*
X217286666Y-81367380D01*
X217429523Y-81415000D01*
X218381904Y-82367380D02*
X217810476Y-82367380D01*
X218096190Y-82367380D02*
X218096190Y-81367380D01*
X218000952Y-81510238D01*
X217905714Y-81605476D01*
X217810476Y-81653095D01*
X251078095Y-34612380D02*
X251316190Y-35612380D01*
X251506666Y-34898095D01*
X251697142Y-35612380D01*
X251935238Y-34612380D01*
X252887619Y-35517142D02*
X252840000Y-35564761D01*
X252697142Y-35612380D01*
X252601904Y-35612380D01*
X252459047Y-35564761D01*
X252363809Y-35469523D01*
X252316190Y-35374285D01*
X252268571Y-35183809D01*
X252268571Y-35040952D01*
X252316190Y-34850476D01*
X252363809Y-34755238D01*
X252459047Y-34660000D01*
X252601904Y-34612380D01*
X252697142Y-34612380D01*
X252840000Y-34660000D01*
X252887619Y-34707619D01*
X253840000Y-35612380D02*
X253268571Y-35612380D01*
X253554285Y-35612380D02*
X253554285Y-34612380D01*
X253459047Y-34755238D01*
X253363809Y-34850476D01*
X253268571Y-34898095D01*
X254697142Y-34612380D02*
X254506666Y-34612380D01*
X254411428Y-34660000D01*
X254363809Y-34707619D01*
X254268571Y-34850476D01*
X254220952Y-35040952D01*
X254220952Y-35421904D01*
X254268571Y-35517142D01*
X254316190Y-35564761D01*
X254411428Y-35612380D01*
X254601904Y-35612380D01*
X254697142Y-35564761D01*
X254744761Y-35517142D01*
X254792380Y-35421904D01*
X254792380Y-35183809D01*
X254744761Y-35088571D01*
X254697142Y-35040952D01*
X254601904Y-34993333D01*
X254411428Y-34993333D01*
X254316190Y-35040952D01*
X254268571Y-35088571D01*
X254220952Y-35183809D01*
X255411428Y-34612380D02*
X255506666Y-34612380D01*
X255601904Y-34660000D01*
X255649523Y-34707619D01*
X255697142Y-34802857D01*
X255744761Y-34993333D01*
X255744761Y-35231428D01*
X255697142Y-35421904D01*
X255649523Y-35517142D01*
X255601904Y-35564761D01*
X255506666Y-35612380D01*
X255411428Y-35612380D01*
X255316190Y-35564761D01*
X255268571Y-35517142D01*
X255220952Y-35421904D01*
X255173333Y-35231428D01*
X255173333Y-34993333D01*
X255220952Y-34802857D01*
X255268571Y-34707619D01*
X255316190Y-34660000D01*
X255411428Y-34612380D01*
X256125714Y-34707619D02*
X256173333Y-34660000D01*
X256268571Y-34612380D01*
X256506666Y-34612380D01*
X256601904Y-34660000D01*
X256649523Y-34707619D01*
X256697142Y-34802857D01*
X256697142Y-34898095D01*
X256649523Y-35040952D01*
X256078095Y-35612380D01*
X256697142Y-35612380D01*
X257078095Y-35326666D02*
X257554285Y-35326666D01*
X256982857Y-35612380D02*
X257316190Y-34612380D01*
X257649523Y-35612380D01*
G04 #@! TO.C,FID3*
X263088571Y-68572071D02*
X262755238Y-68572071D01*
X262755238Y-69095880D02*
X262755238Y-68095880D01*
X263231428Y-68095880D01*
X263612380Y-69095880D02*
X263612380Y-68095880D01*
X264088571Y-69095880D02*
X264088571Y-68095880D01*
X264326666Y-68095880D01*
X264469523Y-68143500D01*
X264564761Y-68238738D01*
X264612380Y-68333976D01*
X264660000Y-68524452D01*
X264660000Y-68667309D01*
X264612380Y-68857785D01*
X264564761Y-68953023D01*
X264469523Y-69048261D01*
X264326666Y-69095880D01*
X264088571Y-69095880D01*
X264993333Y-68095880D02*
X265612380Y-68095880D01*
X265279047Y-68476833D01*
X265421904Y-68476833D01*
X265517142Y-68524452D01*
X265564761Y-68572071D01*
X265612380Y-68667309D01*
X265612380Y-68905404D01*
X265564761Y-69000642D01*
X265517142Y-69048261D01*
X265421904Y-69095880D01*
X265136190Y-69095880D01*
X265040952Y-69048261D01*
X264993333Y-69000642D01*
G04 #@! TO.C,J1*
X197766666Y-103812380D02*
X197766666Y-104526666D01*
X197719047Y-104669523D01*
X197623809Y-104764761D01*
X197480952Y-104812380D01*
X197385714Y-104812380D01*
X198766666Y-104812380D02*
X198195238Y-104812380D01*
X198480952Y-104812380D02*
X198480952Y-103812380D01*
X198385714Y-103955238D01*
X198290476Y-104050476D01*
X198195238Y-104098095D01*
X195576190Y-91128571D02*
X195909523Y-91128571D01*
X196052380Y-91652380D02*
X195576190Y-91652380D01*
X195576190Y-90652380D01*
X196052380Y-90652380D01*
X196433333Y-91604761D02*
X196576190Y-91652380D01*
X196814285Y-91652380D01*
X196909523Y-91604761D01*
X196957142Y-91557142D01*
X197004761Y-91461904D01*
X197004761Y-91366666D01*
X196957142Y-91271428D01*
X196909523Y-91223809D01*
X196814285Y-91176190D01*
X196623809Y-91128571D01*
X196528571Y-91080952D01*
X196480952Y-91033333D01*
X196433333Y-90938095D01*
X196433333Y-90842857D01*
X196480952Y-90747619D01*
X196528571Y-90700000D01*
X196623809Y-90652380D01*
X196861904Y-90652380D01*
X197004761Y-90700000D01*
X197433333Y-91652380D02*
X197433333Y-90652380D01*
X197814285Y-90652380D01*
X197909523Y-90700000D01*
X197957142Y-90747619D01*
X198004761Y-90842857D01*
X198004761Y-90985714D01*
X197957142Y-91080952D01*
X197909523Y-91128571D01*
X197814285Y-91176190D01*
X197433333Y-91176190D01*
X198195238Y-91747619D02*
X198957142Y-91747619D01*
X199385714Y-90652380D02*
X199480952Y-90652380D01*
X199576190Y-90700000D01*
X199623809Y-90747619D01*
X199671428Y-90842857D01*
X199719047Y-91033333D01*
X199719047Y-91271428D01*
X199671428Y-91461904D01*
X199623809Y-91557142D01*
X199576190Y-91604761D01*
X199480952Y-91652380D01*
X199385714Y-91652380D01*
X199290476Y-91604761D01*
X199242857Y-91557142D01*
X199195238Y-91461904D01*
X199147619Y-91271428D01*
X199147619Y-91033333D01*
X199195238Y-90842857D01*
X199242857Y-90747619D01*
X199290476Y-90700000D01*
X199385714Y-90652380D01*
X200671428Y-91652380D02*
X200100000Y-91652380D01*
X200385714Y-91652380D02*
X200385714Y-90652380D01*
X200290476Y-90795238D01*
X200195238Y-90890476D01*
X200100000Y-90938095D01*
G04 #@! TO.C,Q4*
X259767619Y-78835238D02*
X259720000Y-78930476D01*
X259624761Y-79025714D01*
X259481904Y-79168571D01*
X259434285Y-79263809D01*
X259434285Y-79359047D01*
X259672380Y-79311428D02*
X259624761Y-79406666D01*
X259529523Y-79501904D01*
X259339047Y-79549523D01*
X259005714Y-79549523D01*
X258815238Y-79501904D01*
X258720000Y-79406666D01*
X258672380Y-79311428D01*
X258672380Y-79120952D01*
X258720000Y-79025714D01*
X258815238Y-78930476D01*
X259005714Y-78882857D01*
X259339047Y-78882857D01*
X259529523Y-78930476D01*
X259624761Y-79025714D01*
X259672380Y-79120952D01*
X259672380Y-79311428D01*
X259005714Y-78025714D02*
X259672380Y-78025714D01*
X258624761Y-78263809D02*
X259339047Y-78501904D01*
X259339047Y-77882857D01*
X263948571Y-80597142D02*
X263996190Y-80454285D01*
X264043809Y-80406666D01*
X264139047Y-80359047D01*
X264281904Y-80359047D01*
X264377142Y-80406666D01*
X264424761Y-80454285D01*
X264472380Y-80549523D01*
X264472380Y-80930476D01*
X263472380Y-80930476D01*
X263472380Y-80597142D01*
X263520000Y-80501904D01*
X263567619Y-80454285D01*
X263662857Y-80406666D01*
X263758095Y-80406666D01*
X263853333Y-80454285D01*
X263900952Y-80501904D01*
X263948571Y-80597142D01*
X263948571Y-80930476D01*
X264377142Y-79359047D02*
X264424761Y-79406666D01*
X264472380Y-79549523D01*
X264472380Y-79644761D01*
X264424761Y-79787619D01*
X264329523Y-79882857D01*
X264234285Y-79930476D01*
X264043809Y-79978095D01*
X263900952Y-79978095D01*
X263710476Y-79930476D01*
X263615238Y-79882857D01*
X263520000Y-79787619D01*
X263472380Y-79644761D01*
X263472380Y-79549523D01*
X263520000Y-79406666D01*
X263567619Y-79359047D01*
X263900952Y-78787619D02*
X263853333Y-78882857D01*
X263805714Y-78930476D01*
X263710476Y-78978095D01*
X263662857Y-78978095D01*
X263567619Y-78930476D01*
X263520000Y-78882857D01*
X263472380Y-78787619D01*
X263472380Y-78597142D01*
X263520000Y-78501904D01*
X263567619Y-78454285D01*
X263662857Y-78406666D01*
X263710476Y-78406666D01*
X263805714Y-78454285D01*
X263853333Y-78501904D01*
X263900952Y-78597142D01*
X263900952Y-78787619D01*
X263948571Y-78882857D01*
X263996190Y-78930476D01*
X264091428Y-78978095D01*
X264281904Y-78978095D01*
X264377142Y-78930476D01*
X264424761Y-78882857D01*
X264472380Y-78787619D01*
X264472380Y-78597142D01*
X264424761Y-78501904D01*
X264377142Y-78454285D01*
X264281904Y-78406666D01*
X264091428Y-78406666D01*
X263996190Y-78454285D01*
X263948571Y-78501904D01*
X263900952Y-78597142D01*
X264472380Y-77454285D02*
X264472380Y-78025714D01*
X264472380Y-77740000D02*
X263472380Y-77740000D01*
X263615238Y-77835238D01*
X263710476Y-77930476D01*
X263758095Y-78025714D01*
X263472380Y-77120952D02*
X263472380Y-76454285D01*
X264472380Y-76882857D01*
G04 #@! TO.C,Q2*
X259767619Y-68675238D02*
X259720000Y-68770476D01*
X259624761Y-68865714D01*
X259481904Y-69008571D01*
X259434285Y-69103809D01*
X259434285Y-69199047D01*
X259672380Y-69151428D02*
X259624761Y-69246666D01*
X259529523Y-69341904D01*
X259339047Y-69389523D01*
X259005714Y-69389523D01*
X258815238Y-69341904D01*
X258720000Y-69246666D01*
X258672380Y-69151428D01*
X258672380Y-68960952D01*
X258720000Y-68865714D01*
X258815238Y-68770476D01*
X259005714Y-68722857D01*
X259339047Y-68722857D01*
X259529523Y-68770476D01*
X259624761Y-68865714D01*
X259672380Y-68960952D01*
X259672380Y-69151428D01*
X258767619Y-68341904D02*
X258720000Y-68294285D01*
X258672380Y-68199047D01*
X258672380Y-67960952D01*
X258720000Y-67865714D01*
X258767619Y-67818095D01*
X258862857Y-67770476D01*
X258958095Y-67770476D01*
X259100952Y-67818095D01*
X259672380Y-68389523D01*
X259672380Y-67770476D01*
X263948571Y-70437142D02*
X263996190Y-70294285D01*
X264043809Y-70246666D01*
X264139047Y-70199047D01*
X264281904Y-70199047D01*
X264377142Y-70246666D01*
X264424761Y-70294285D01*
X264472380Y-70389523D01*
X264472380Y-70770476D01*
X263472380Y-70770476D01*
X263472380Y-70437142D01*
X263520000Y-70341904D01*
X263567619Y-70294285D01*
X263662857Y-70246666D01*
X263758095Y-70246666D01*
X263853333Y-70294285D01*
X263900952Y-70341904D01*
X263948571Y-70437142D01*
X263948571Y-70770476D01*
X264377142Y-69199047D02*
X264424761Y-69246666D01*
X264472380Y-69389523D01*
X264472380Y-69484761D01*
X264424761Y-69627619D01*
X264329523Y-69722857D01*
X264234285Y-69770476D01*
X264043809Y-69818095D01*
X263900952Y-69818095D01*
X263710476Y-69770476D01*
X263615238Y-69722857D01*
X263520000Y-69627619D01*
X263472380Y-69484761D01*
X263472380Y-69389523D01*
X263520000Y-69246666D01*
X263567619Y-69199047D01*
X263900952Y-68627619D02*
X263853333Y-68722857D01*
X263805714Y-68770476D01*
X263710476Y-68818095D01*
X263662857Y-68818095D01*
X263567619Y-68770476D01*
X263520000Y-68722857D01*
X263472380Y-68627619D01*
X263472380Y-68437142D01*
X263520000Y-68341904D01*
X263567619Y-68294285D01*
X263662857Y-68246666D01*
X263710476Y-68246666D01*
X263805714Y-68294285D01*
X263853333Y-68341904D01*
X263900952Y-68437142D01*
X263900952Y-68627619D01*
X263948571Y-68722857D01*
X263996190Y-68770476D01*
X264091428Y-68818095D01*
X264281904Y-68818095D01*
X264377142Y-68770476D01*
X264424761Y-68722857D01*
X264472380Y-68627619D01*
X264472380Y-68437142D01*
X264424761Y-68341904D01*
X264377142Y-68294285D01*
X264281904Y-68246666D01*
X264091428Y-68246666D01*
X263996190Y-68294285D01*
X263948571Y-68341904D01*
X263900952Y-68437142D01*
X264472380Y-67294285D02*
X264472380Y-67865714D01*
X264472380Y-67580000D02*
X263472380Y-67580000D01*
X263615238Y-67675238D01*
X263710476Y-67770476D01*
X263758095Y-67865714D01*
X263472380Y-66960952D02*
X263472380Y-66294285D01*
X264472380Y-66722857D01*
G04 #@! TO.C,R3*
X251023333Y-83892380D02*
X250690000Y-83416190D01*
X250451904Y-83892380D02*
X250451904Y-82892380D01*
X250832857Y-82892380D01*
X250928095Y-82940000D01*
X250975714Y-82987619D01*
X251023333Y-83082857D01*
X251023333Y-83225714D01*
X250975714Y-83320952D01*
X250928095Y-83368571D01*
X250832857Y-83416190D01*
X250451904Y-83416190D01*
X251356666Y-82892380D02*
X251975714Y-82892380D01*
X251642380Y-83273333D01*
X251785238Y-83273333D01*
X251880476Y-83320952D01*
X251928095Y-83368571D01*
X251975714Y-83463809D01*
X251975714Y-83701904D01*
X251928095Y-83797142D01*
X251880476Y-83844761D01*
X251785238Y-83892380D01*
X251499523Y-83892380D01*
X251404285Y-83844761D01*
X251356666Y-83797142D01*
X250975714Y-87192380D02*
X250404285Y-87192380D01*
X250690000Y-87192380D02*
X250690000Y-86192380D01*
X250594761Y-86335238D01*
X250499523Y-86430476D01*
X250404285Y-86478095D01*
X251404285Y-87192380D02*
X251404285Y-86192380D01*
X251975714Y-87192380D02*
X251547142Y-86620952D01*
X251975714Y-86192380D02*
X251404285Y-86763809D01*
G04 #@! TO.C,D1*
X260422380Y-38838095D02*
X259422380Y-38838095D01*
X259422380Y-38600000D01*
X259470000Y-38457142D01*
X259565238Y-38361904D01*
X259660476Y-38314285D01*
X259850952Y-38266666D01*
X259993809Y-38266666D01*
X260184285Y-38314285D01*
X260279523Y-38361904D01*
X260374761Y-38457142D01*
X260422380Y-38600000D01*
X260422380Y-38838095D01*
X260422380Y-37314285D02*
X260422380Y-37885714D01*
X260422380Y-37600000D02*
X259422380Y-37600000D01*
X259565238Y-37695238D01*
X259660476Y-37790476D01*
X259708095Y-37885714D01*
X263722380Y-39600000D02*
X263722380Y-40076190D01*
X262722380Y-40076190D01*
X263198571Y-39266666D02*
X263198571Y-38933333D01*
X263722380Y-38790476D02*
X263722380Y-39266666D01*
X262722380Y-39266666D01*
X262722380Y-38790476D01*
X263722380Y-38361904D02*
X262722380Y-38361904D01*
X262722380Y-38123809D01*
X262770000Y-37980952D01*
X262865238Y-37885714D01*
X262960476Y-37838095D01*
X263150952Y-37790476D01*
X263293809Y-37790476D01*
X263484285Y-37838095D01*
X263579523Y-37885714D01*
X263674761Y-37980952D01*
X263722380Y-38123809D01*
X263722380Y-38361904D01*
X263817619Y-37600000D02*
X263817619Y-36838095D01*
X262722380Y-36409523D02*
X262722380Y-36314285D01*
X262770000Y-36219047D01*
X262817619Y-36171428D01*
X262912857Y-36123809D01*
X263103333Y-36076190D01*
X263341428Y-36076190D01*
X263531904Y-36123809D01*
X263627142Y-36171428D01*
X263674761Y-36219047D01*
X263722380Y-36314285D01*
X263722380Y-36409523D01*
X263674761Y-36504761D01*
X263627142Y-36552380D01*
X263531904Y-36600000D01*
X263341428Y-36647619D01*
X263103333Y-36647619D01*
X262912857Y-36600000D01*
X262817619Y-36552380D01*
X262770000Y-36504761D01*
X262722380Y-36409523D01*
G04 #@! TO.C,R8*
X231243333Y-83892380D02*
X230910000Y-83416190D01*
X230671904Y-83892380D02*
X230671904Y-82892380D01*
X231052857Y-82892380D01*
X231148095Y-82940000D01*
X231195714Y-82987619D01*
X231243333Y-83082857D01*
X231243333Y-83225714D01*
X231195714Y-83320952D01*
X231148095Y-83368571D01*
X231052857Y-83416190D01*
X230671904Y-83416190D01*
X231814761Y-83320952D02*
X231719523Y-83273333D01*
X231671904Y-83225714D01*
X231624285Y-83130476D01*
X231624285Y-83082857D01*
X231671904Y-82987619D01*
X231719523Y-82940000D01*
X231814761Y-82892380D01*
X232005238Y-82892380D01*
X232100476Y-82940000D01*
X232148095Y-82987619D01*
X232195714Y-83082857D01*
X232195714Y-83130476D01*
X232148095Y-83225714D01*
X232100476Y-83273333D01*
X232005238Y-83320952D01*
X231814761Y-83320952D01*
X231719523Y-83368571D01*
X231671904Y-83416190D01*
X231624285Y-83511428D01*
X231624285Y-83701904D01*
X231671904Y-83797142D01*
X231719523Y-83844761D01*
X231814761Y-83892380D01*
X232005238Y-83892380D01*
X232100476Y-83844761D01*
X232148095Y-83797142D01*
X232195714Y-83701904D01*
X232195714Y-83511428D01*
X232148095Y-83416190D01*
X232100476Y-83368571D01*
X232005238Y-83320952D01*
X230719523Y-87192380D02*
X230148095Y-87192380D01*
X230433809Y-87192380D02*
X230433809Y-86192380D01*
X230338571Y-86335238D01*
X230243333Y-86430476D01*
X230148095Y-86478095D01*
X231338571Y-86192380D02*
X231433809Y-86192380D01*
X231529047Y-86240000D01*
X231576666Y-86287619D01*
X231624285Y-86382857D01*
X231671904Y-86573333D01*
X231671904Y-86811428D01*
X231624285Y-87001904D01*
X231576666Y-87097142D01*
X231529047Y-87144761D01*
X231433809Y-87192380D01*
X231338571Y-87192380D01*
X231243333Y-87144761D01*
X231195714Y-87097142D01*
X231148095Y-87001904D01*
X231100476Y-86811428D01*
X231100476Y-86573333D01*
X231148095Y-86382857D01*
X231195714Y-86287619D01*
X231243333Y-86240000D01*
X231338571Y-86192380D01*
X232100476Y-87192380D02*
X232100476Y-86192380D01*
X232671904Y-87192380D02*
X232243333Y-86620952D01*
X232671904Y-86192380D02*
X232100476Y-86763809D01*
G04 #@! TO.C,U6*
X210022380Y-85851904D02*
X210831904Y-85851904D01*
X210927142Y-85804285D01*
X210974761Y-85756666D01*
X211022380Y-85661428D01*
X211022380Y-85470952D01*
X210974761Y-85375714D01*
X210927142Y-85328095D01*
X210831904Y-85280476D01*
X210022380Y-85280476D01*
X210022380Y-84375714D02*
X210022380Y-84566190D01*
X210070000Y-84661428D01*
X210117619Y-84709047D01*
X210260476Y-84804285D01*
X210450952Y-84851904D01*
X210831904Y-84851904D01*
X210927142Y-84804285D01*
X210974761Y-84756666D01*
X211022380Y-84661428D01*
X211022380Y-84470952D01*
X210974761Y-84375714D01*
X210927142Y-84328095D01*
X210831904Y-84280476D01*
X210593809Y-84280476D01*
X210498571Y-84328095D01*
X210450952Y-84375714D01*
X210403333Y-84470952D01*
X210403333Y-84661428D01*
X210450952Y-84756666D01*
X210498571Y-84804285D01*
X210593809Y-84851904D01*
X204672380Y-87828095D02*
X204672380Y-88304285D01*
X203672380Y-88304285D01*
X204672380Y-87494761D02*
X203672380Y-87494761D01*
X204386666Y-87161428D01*
X203672380Y-86828095D01*
X204672380Y-86828095D01*
X203672380Y-86447142D02*
X203672380Y-85828095D01*
X204053333Y-86161428D01*
X204053333Y-86018571D01*
X204100952Y-85923333D01*
X204148571Y-85875714D01*
X204243809Y-85828095D01*
X204481904Y-85828095D01*
X204577142Y-85875714D01*
X204624761Y-85923333D01*
X204672380Y-86018571D01*
X204672380Y-86304285D01*
X204624761Y-86399523D01*
X204577142Y-86447142D01*
X203672380Y-84923333D02*
X203672380Y-85399523D01*
X204148571Y-85447142D01*
X204100952Y-85399523D01*
X204053333Y-85304285D01*
X204053333Y-85066190D01*
X204100952Y-84970952D01*
X204148571Y-84923333D01*
X204243809Y-84875714D01*
X204481904Y-84875714D01*
X204577142Y-84923333D01*
X204624761Y-84970952D01*
X204672380Y-85066190D01*
X204672380Y-85304285D01*
X204624761Y-85399523D01*
X204577142Y-85447142D01*
X204291428Y-84447142D02*
X204291428Y-83685238D01*
X204672380Y-82732857D02*
X204672380Y-83209047D01*
X203672380Y-83209047D01*
X204672380Y-82399523D02*
X203672380Y-82399523D01*
X203672380Y-82018571D01*
X203720000Y-81923333D01*
X203767619Y-81875714D01*
X203862857Y-81828095D01*
X204005714Y-81828095D01*
X204100952Y-81875714D01*
X204148571Y-81923333D01*
X204196190Y-82018571D01*
X204196190Y-82399523D01*
D11*
G04 #@! TO.C,R9*
X236262936Y-84355000D02*
X236717064Y-84355000D01*
X236262936Y-85825000D02*
X236717064Y-85825000D01*
G04 #@! TO.C,R7*
X226102936Y-85825000D02*
X226557064Y-85825000D01*
X226102936Y-84355000D02*
X226557064Y-84355000D01*
G04 #@! TO.C,D3*
X262580000Y-50120000D02*
X262580000Y-47260000D01*
X260660000Y-47260000D02*
X260660000Y-50120000D01*
X260660000Y-50120000D02*
X262580000Y-50120000D01*
G04 #@! TO.C,SW2*
X174300000Y-94210000D02*
X174300000Y-95710000D01*
X175550000Y-98210000D02*
X180050000Y-98210000D01*
X180050000Y-91710000D02*
X175550000Y-91710000D01*
X181300000Y-95710000D02*
X181300000Y-94210000D01*
G04 #@! TO.C,D6*
X184922500Y-100465000D02*
X184922500Y-102735000D01*
X188982500Y-100465000D02*
X184922500Y-100465000D01*
X184922500Y-102735000D02*
X188982500Y-102735000D01*
G04 #@! TO.C,R1*
X215942936Y-85825000D02*
X216397064Y-85825000D01*
X215942936Y-84355000D02*
X216397064Y-84355000D01*
G04 #@! TO.C,R2*
X245882936Y-85825000D02*
X246337064Y-85825000D01*
X245882936Y-84355000D02*
X246337064Y-84355000D01*
G04 #@! TO.C,R6*
X221022936Y-84355000D02*
X221477064Y-84355000D01*
X221022936Y-85825000D02*
X221477064Y-85825000D01*
G04 #@! TO.C,Q1*
X263180000Y-63500000D02*
X263180000Y-62850000D01*
X260060000Y-63500000D02*
X260060000Y-62850000D01*
X260060000Y-63500000D02*
X260060000Y-65175000D01*
X263180000Y-63500000D02*
X263180000Y-64150000D01*
G04 #@! TO.C,Q3*
X263180000Y-73660000D02*
X263180000Y-74310000D01*
X260060000Y-73660000D02*
X260060000Y-75335000D01*
X263180000Y-73660000D02*
X263180000Y-73010000D01*
X260060000Y-73660000D02*
X260060000Y-73010000D01*
G04 #@! TO.C,R5*
X241072936Y-85825000D02*
X241527064Y-85825000D01*
X241072936Y-84355000D02*
X241527064Y-84355000D01*
G04 #@! TO.C,U3*
X245120000Y-89327500D02*
X245120000Y-108547500D01*
X237017200Y-103813700D02*
X240700200Y-103813700D01*
X232880000Y-108897500D02*
X234490000Y-108897500D01*
X232400000Y-89327500D02*
X232400000Y-108547500D01*
X240878000Y-98911500D02*
X240878000Y-103813700D01*
X240878000Y-93374300D02*
X240878000Y-98733700D01*
X232400000Y-108547500D02*
X245120000Y-108547500D01*
X237017200Y-98809900D02*
X240700200Y-98809900D01*
X237017200Y-93348900D02*
X240700200Y-93348900D01*
X236839400Y-98911500D02*
X236839400Y-103813700D01*
X236839400Y-93374300D02*
X236839400Y-98733700D01*
X232400000Y-89327500D02*
X245120000Y-89327500D01*
X242222467Y-103999967D02*
G75*
G03*
X242222467Y-103999967I-472467J0D01*
G01*
G04 #@! TO.C,D5*
X178932500Y-100465000D02*
X178932500Y-102735000D01*
X182992500Y-100465000D02*
X178932500Y-100465000D01*
X178932500Y-102735000D02*
X182992500Y-102735000D01*
G04 #@! TO.C,D7*
X172942500Y-100465000D02*
X172942500Y-102735000D01*
X172942500Y-102735000D02*
X177002500Y-102735000D01*
X177002500Y-100465000D02*
X172942500Y-100465000D01*
G04 #@! TO.C,U4*
X252257200Y-98809900D02*
X255940200Y-98809900D01*
X248120000Y-108897500D02*
X249730000Y-108897500D01*
X247640000Y-89327500D02*
X260360000Y-89327500D01*
X256118000Y-98911500D02*
X256118000Y-103813700D01*
X252079400Y-93374300D02*
X252079400Y-98733700D01*
X256118000Y-93374300D02*
X256118000Y-98733700D01*
X247640000Y-108547500D02*
X260360000Y-108547500D01*
X247640000Y-89327500D02*
X247640000Y-108547500D01*
X252257200Y-93348900D02*
X255940200Y-93348900D01*
X260360000Y-89327500D02*
X260360000Y-108547500D01*
X252257200Y-103813700D02*
X255940200Y-103813700D01*
X252079400Y-98911500D02*
X252079400Y-103813700D01*
X257462467Y-103999967D02*
G75*
G03*
X257462467Y-103999967I-472467J0D01*
G01*
G04 #@! TO.C,D4*
X260660000Y-55200000D02*
X262580000Y-55200000D01*
X262580000Y-55200000D02*
X262580000Y-52340000D01*
X260660000Y-52340000D02*
X260660000Y-55200000D01*
G04 #@! TO.C,SW1*
X181300000Y-87110000D02*
X181300000Y-85610000D01*
X174300000Y-85610000D02*
X174300000Y-87110000D01*
X180050000Y-83110000D02*
X175550000Y-83110000D01*
X175550000Y-89610000D02*
X180050000Y-89610000D01*
G04 #@! TO.C,R4*
X256042936Y-85825000D02*
X256497064Y-85825000D01*
X256042936Y-84355000D02*
X256497064Y-84355000D01*
G04 #@! TO.C,SW3*
X192170000Y-87110000D02*
X192170000Y-85610000D01*
X185170000Y-85610000D02*
X185170000Y-87110000D01*
X186420000Y-89610000D02*
X190920000Y-89610000D01*
X190920000Y-83110000D02*
X186420000Y-83110000D01*
G04 #@! TO.C,U2*
X221599400Y-98911500D02*
X221599400Y-103813700D01*
X217640000Y-108897500D02*
X219250000Y-108897500D01*
X217160000Y-108547500D02*
X229880000Y-108547500D01*
X221599400Y-93374300D02*
X221599400Y-98733700D01*
X221777200Y-98809900D02*
X225460200Y-98809900D01*
X221777200Y-103813700D02*
X225460200Y-103813700D01*
X217160000Y-89327500D02*
X217160000Y-108547500D01*
X217160000Y-89327500D02*
X229880000Y-89327500D01*
X221777200Y-93348900D02*
X225460200Y-93348900D01*
X229880000Y-89327500D02*
X229880000Y-108547500D01*
X225638000Y-98911500D02*
X225638000Y-103813700D01*
X225638000Y-93374300D02*
X225638000Y-98733700D01*
X226982467Y-103999967D02*
G75*
G03*
X226982467Y-103999967I-472467J0D01*
G01*
G04 #@! TO.C,U1*
X201920000Y-108547500D02*
X214640000Y-108547500D01*
X206537200Y-103813700D02*
X210220200Y-103813700D01*
X210398000Y-93374300D02*
X210398000Y-98733700D01*
X206359400Y-98911500D02*
X206359400Y-103813700D01*
X214640000Y-89327500D02*
X214640000Y-108547500D01*
X206359400Y-93374300D02*
X206359400Y-98733700D01*
X210398000Y-98911500D02*
X210398000Y-103813700D01*
X202400000Y-108897500D02*
X204010000Y-108897500D01*
X201920000Y-89327500D02*
X214640000Y-89327500D01*
X206537200Y-93348900D02*
X210220200Y-93348900D01*
X201920000Y-89327500D02*
X201920000Y-108547500D01*
X206537200Y-98809900D02*
X210220200Y-98809900D01*
X211742467Y-103999967D02*
G75*
G03*
X211742467Y-103999967I-472467J0D01*
G01*
G04 #@! TO.C,BT1*
X199050000Y-121110000D02*
X193350000Y-121110000D01*
X199050000Y-115110000D02*
X199050000Y-121110000D01*
X199050000Y-115110000D02*
X193350000Y-115110000D01*
X192600000Y-114610000D02*
G75*
G03*
X170154329Y-118110000I-10949956J-3499989D01*
G01*
X170154329Y-118110000D02*
G75*
G03*
X192600000Y-121610000I11495715J-11D01*
G01*
X193350000Y-121110000D02*
G75*
G03*
X192600000Y-121610000I0J-812500D01*
G01*
X192600000Y-114610000D02*
G75*
G03*
X193350000Y-115110000I750000J312500D01*
G01*
G04 #@! TO.C,U5*
X200610000Y-115840000D02*
X200610000Y-120900000D01*
X251530000Y-115840000D02*
X200610000Y-115840000D01*
X200610000Y-122900000D02*
X200610000Y-127960000D01*
X251530000Y-127960000D02*
X251530000Y-115840000D01*
X200610000Y-127960000D02*
X251530000Y-127960000D01*
X200610000Y-122900000D02*
G75*
G03*
X200610000Y-120900000I0J1000000D01*
G01*
G04 #@! TO.C,D2*
X260660000Y-45040000D02*
X262580000Y-45040000D01*
X260660000Y-42180000D02*
X260660000Y-45040000D01*
X262580000Y-45040000D02*
X262580000Y-42180000D01*
G04 #@! TO.C,SW4*
X192020000Y-95710000D02*
X192020000Y-94210000D01*
X185020000Y-94210000D02*
X185020000Y-95710000D01*
X190770000Y-91710000D02*
X186270000Y-91710000D01*
X186270000Y-98210000D02*
X190770000Y-98210000D01*
G04 #@! TO.C,RV1*
X195840000Y-89835000D02*
X197626000Y-89835000D01*
X195840000Y-82885000D02*
X197626000Y-82885000D01*
X200580000Y-89835000D02*
X200580000Y-82885000D01*
X198616000Y-82885000D02*
X200580000Y-82885000D01*
X198616000Y-89835000D02*
X200580000Y-89835000D01*
X195840000Y-89835000D02*
X195840000Y-82885000D01*
G04 #@! TO.C,DS1*
X258040000Y-80880000D02*
X173760000Y-80880000D01*
X175620000Y-39630000D02*
X173760000Y-39630000D01*
X258040000Y-41850000D02*
X256220000Y-41850000D01*
X173760000Y-36600000D02*
X258040000Y-36600000D01*
X249120000Y-49740000D02*
X249120000Y-63740000D01*
X258040000Y-39630000D02*
X256220000Y-39630000D01*
X248120000Y-64740000D02*
X184120000Y-64740000D01*
X184120000Y-48740000D02*
X248120000Y-48740000D01*
X218620000Y-81240000D02*
X215620000Y-81240000D01*
X180120000Y-44740000D02*
X251120000Y-44740000D01*
X173760000Y-39630000D02*
X173760000Y-36600000D01*
X180120000Y-69740000D02*
X180120000Y-44740000D01*
X251120000Y-69740000D02*
X180120000Y-69740000D01*
X258040000Y-36600000D02*
X258040000Y-39630000D01*
X183090000Y-63740000D02*
X183090000Y-49740000D01*
X258040000Y-41850000D02*
X258040000Y-80880000D01*
X173760000Y-80880000D02*
X173760000Y-41850000D01*
X251120000Y-44740000D02*
X251120000Y-69740000D01*
X173760000Y-41850000D02*
X175620000Y-41850000D01*
X256220000Y-41850000D02*
G75*
G03*
X256510000Y-39920000I-820000J1110000D01*
G01*
X184094260Y-48736300D02*
G75*
G03*
X183093500Y-49737060I40J-1000800D01*
G01*
X175610000Y-39620000D02*
G75*
G03*
X175280000Y-41530000I790000J-1120000D01*
G01*
X248124640Y-64735760D02*
G75*
G03*
X249122860Y-63737540I0J998220D01*
G01*
X175280000Y-39970000D02*
G75*
G03*
X175620000Y-41850000I1110000J-770000D01*
G01*
X183086040Y-63747540D02*
G75*
G03*
X184084260Y-64745760I998260J40D01*
G01*
X256510000Y-41560000D02*
G75*
G03*
X256220000Y-39630000I-1110000J820000D01*
G01*
X249115400Y-49717060D02*
G75*
G03*
X248114640Y-48716300I-1000761J-1D01*
G01*
G04 #@! TO.C,J1*
X200700000Y-92640000D02*
X195500000Y-92640000D01*
X196830000Y-102920000D02*
X195500000Y-102920000D01*
X195500000Y-102920000D02*
X195500000Y-101590000D01*
X200700000Y-102920000D02*
X198100000Y-102920000D01*
X195500000Y-100320000D02*
X195500000Y-92640000D01*
X198100000Y-100320000D02*
X195500000Y-100320000D01*
X200700000Y-102920000D02*
X200700000Y-92640000D01*
X198100000Y-102920000D02*
X198100000Y-100320000D01*
G04 #@! TO.C,Q4*
X263180000Y-78740000D02*
X263180000Y-78090000D01*
X260060000Y-78740000D02*
X260060000Y-80415000D01*
X263180000Y-78740000D02*
X263180000Y-79390000D01*
X260060000Y-78740000D02*
X260060000Y-78090000D01*
G04 #@! TO.C,Q2*
X260060000Y-68580000D02*
X260060000Y-67930000D01*
X263180000Y-68580000D02*
X263180000Y-67930000D01*
X263180000Y-68580000D02*
X263180000Y-69230000D01*
X260060000Y-68580000D02*
X260060000Y-70255000D01*
G04 #@! TO.C,R3*
X250962936Y-84355000D02*
X251417064Y-84355000D01*
X250962936Y-85825000D02*
X251417064Y-85825000D01*
G04 #@! TO.C,D1*
X262580000Y-39960000D02*
X262580000Y-37100000D01*
X260660000Y-37100000D02*
X260660000Y-39960000D01*
X260660000Y-39960000D02*
X262580000Y-39960000D01*
G04 #@! TO.C,R8*
X231182936Y-85825000D02*
X231637064Y-85825000D01*
X231182936Y-84355000D02*
X231637064Y-84355000D01*
G04 #@! TO.C,U6*
X205160000Y-83290000D02*
X205160000Y-86890000D01*
X209610001Y-85090000D02*
G75*
G03*
X205171522Y-83251522I-2600001J0D01*
G01*
X205171522Y-86928478D02*
G75*
G03*
X209610000Y-85090000I1838478J1838478D01*
G01*
G04 #@! TD*
M02*
